font.ufo
<glyph name="asterisk" format="1">
	<unicode hex="002A"/>
	<advance width="441"/>
	<outline>
		<contour>
			<point x="221" y="748" type="curve" smooth="yes"/>
			<point x="204" y="748"/>
			<point x="188" y="741"/>
			<point x="188" y="716" type="curve" smooth="yes"/>
			<point x="188" y="697"/>
			<point x="196" y="653"/>
			<point x="203" y="608" type="curve" smooth="yes"/>
			<point x="213" y="552" type="line"/>
			<point x="162" y="578" type="line" smooth="yes"/>
			<point x="112" y="601"/>
			<point x="75" y="626"/>
			<point x="53" y="626" type="curve" smooth="yes"/>
			<point x="32" y="626"/>
			<point x="21" y="609"/>
			<point x="21" y="594" type="curve" smooth="yes"/>
			<point x="21" y="558"/>
			<point x="69" y="557"/>
			<point x="151" y="544" type="curve" smooth="yes"/>
			<point x="208" y="536" type="line"/>
			<point x="167" y="495" type="line" smooth="yes"/>
			<point x="122" y="447"/>
			<point x="85" y="424"/>
			<point x="85" y="395" type="curve" smooth="yes"/>
			<point x="85" y="374"/>
			<point x="99" y="364"/>
			<point x="115" y="364" type="curve" smooth="yes"/>
			<point x="147" y="364"/>
			<point x="160" y="407"/>
			<point x="196" y="475" type="curve" smooth="yes"/>
			<point x="221" y="527" type="line"/>
			<point x="246" y="475" type="line" smooth="yes"/>
			<point x="283" y="404"/>
			<point x="297" y="365"/>
			<point x="328" y="365" type="curve" smooth="yes"/>
			<point x="343" y="365"/>
			<point x="358" y="375"/>
			<point x="358" y="395" type="curve" smooth="yes"/>
			<point x="358" y="423"/>
			<point x="319" y="449"/>
			<point x="275" y="495" type="curve" smooth="yes"/>
			<point x="234" y="536" type="line"/>
			<point x="290" y="544" type="line" smooth="yes"/>
			<point x="375" y="557"/>
			<point x="420" y="557"/>
			<point x="420" y="595" type="curve" smooth="yes"/>
			<point x="420" y="611"/>
			<point x="410" y="627"/>
			<point x="390" y="627" type="curve" smooth="yes"/>
			<point x="369" y="627"/>
			<point x="329" y="601"/>
			<point x="279" y="578" type="curve" smooth="yes"/>
			<point x="228" y="552" type="line"/>
			<point x="238" y="608" type="line" smooth="yes"/>
			<point x="245" y="654"/>
			<point x="254" y="698"/>
			<point x="254" y="716" type="curve" smooth="yes"/>
			<point x="254" y="740"/>
			<point x="237" y="748"/>
		</contour>
	</outline>
</glyph>
<glyph name="plus" format="1">
	<unicode hex="002B"/>
	<advance width="530"/>
	<outline>
		<contour>
			<point x="242" y="77" type="line"/>
			<point x="288" y="77" type="line"/>
			<point x="288" y="578" type="line"/>
			<point x="242" y="578" type="line"/>
		</contour>
		<contour>
			<point x="501" y="309" type="line"/>
			<point x="501" y="351" type="line"/>
			<point x="29" y="351" type="line"/>
			<point x="29" y="309" type="line"/>
		</contour>
	</outline>
</glyph>
<glyph name="comma" format="1">
	<unicode hex="002C"/>
	<advance width="300"/>
	<outline>
		<contour>
			<point x="212" y="27" type="curve" smooth="yes"/>
			<point x="212" y="51"/>
			<point x="208" y="74"/>
			<point x="201" y="99" type="curve"/>
			<point x="176" y="122"/>
			<point x="157" y="128"/>
			<point x="139" y="128" type="curve" smooth="yes"/>
			<point x="99" y="128"/>
			<point x="79" y="100"/>
			<point x="79" y="66" type="curve" smooth="yes"/>
			<point x="79" y="42"/>
			<point x="90" y="16"/>
			<point x="116" y="-5" type="curve" smooth="yes"/>
			<point x="164" y="-43" type="line"/>
			<point x="167" y="1" type="line"/>
			<point x="152" y="-106"/>
			<point x="90" y="-157"/>
			<point x="6" y="-197" type="curve"/>
			<point x="19" y="-225" type="line"/>
			<point x="115" y="-189"/>
			<point x="212" y="-93"/>
		</contour>
	</outline>
</glyph>
<glyph name="hyphen" format="1">
	<unicode hex="002D"/>
	<advance width="310"/>
	<outline>
		<contour>
			<point x="40" y="223" type="line"/>
			<point x="270" y="223" type="line"/>
			<point x="270" y="279" type="line"/>
			<point x="40" y="279" type="line"/>
		</contour>
	</outline>
</glyph>
<glyph name="at" format="1">
	<unicode hex="0040"/>
	<advance width="832"/>
	<outline>
		<contour>
			<point x="365" y="94" type="curve" smooth="yes"/>
			<point x="317" y="94"/>
			<point x="295" y="126"/>
			<point x="295" y="190" type="curve" smooth="yes"/>
			<point x="295" y="268"/>
			<point x="323" y="326"/>
			<point x="356" y="371" type="curve" smooth="yes"/>
			<point x="388" y="415"/>
			<point x="427" y="432"/>
			<point x="458" y="432" type="curve" smooth="yes"/>
			<point x="485" y="432"/>
			<point x="510" y="418"/>
			<point x="528" y="380" type="curve"/>
			<point x="545" y="410" type="line"/>
			<point x="515" y="458"/>
			<point x="493" y="470"/>
			<point x="463" y="470" type="curve" smooth="yes"/>
			<point x="410" y="470"/>
			<point x="358" y="439"/>
			<point x="314" y="386" type="curve" smooth="yes"/>
			<point x="268" y="332"/>
			<point x="231" y="258"/>
			<point x="231" y="173" type="curve" smooth="yes"/>
			<point x="231" y="79"/>
			<point x="283" y="43"/>
			<point x="338" y="43" type="curve" smooth="yes"/>
			<point x="403" y="43"/>
			<point x="460" y="100"/>
			<point x="505" y="159" type="curve"/>
			<point x="502" y="170" type="line"/>
			<point x="432" y="110"/>
			<point x="399" y="94"/>
		</contour>
		<contour>
			<point x="468" y="621" type="curve" smooth="yes"/>
			<point x="628" y="621"/>
			<point x="757" y="505"/>
			<point x="757" y="335" type="curve" smooth="yes"/>
			<point x="757" y="157"/>
			<point x="663" y="78"/>
			<point x="592" y="78" type="curve" smooth="yes"/>
			<point x="547" y="78"/>
			<point x="526" y="107"/>
			<point x="537" y="161" type="curve"/>
			<point x="597" y="461" type="line"/>
			<point x="585" y="474" type="line"/>
			<point x="529" y="452" type="line"/>
			<point x="471" y="146" type="line"/>
			<point x="473" y="130" type="line"/>
			<point x="479" y="82"/>
			<point x="514" y="43"/>
			<point x="577" y="43" type="curve" smooth="yes"/>
			<point x="652" y="43"/>
			<point x="796" y="118"/>
			<point x="796" y="324" type="curve" smooth="yes"/>
			<point x="796" y="512"/>
			<point x="679" y="646"/>
			<point x="473" y="646" type="curve" smooth="yes"/>
			<point x="228" y="646"/>
			<point x="35" y="458"/>
			<point x="35" y="207" type="curve" smooth="yes"/>
			<point x="35" y="-41"/>
			<point x="203" y="-155"/>
			<point x="398" y="-155" type="curve" smooth="yes"/>
			<point x="456" y="-155"/>
			<point x="527" y="-144"/>
			<point x="586" y="-117" type="curve"/>
			<point x="579" y="-97" type="line"/>
			<point x="534" y="-118"/>
			<point x="484" y="-130"/>
			<point x="416" y="-130" type="curve" smooth="yes"/>
			<point x="238" y="-130"/>
			<point x="73" y="-19"/>
			<point x="73" y="217" type="curve" smooth="yes"/>
			<point x="73" y="425"/>
			<point x="233" y="621"/>
		</contour>
	</outline>
</glyph>
<glyph name="C" format="1">
	<unicode hex="0043"/>
	<advance width="632"/>
	<outline>
		<contour>
			<point x="397" y="27" type="curve" smooth="yes"/>
			<point x="251" y="27"/>
			<point x="153" y="134"/>
			<point x="153" y="335" type="curve" smooth="yes"/>
			<point x="153" y="536"/>
			<point x="262" y="643"/>
			<point x="400" y="643" type="curve" smooth="yes"/>
			<point x="447" y="643"/>
			<point x="503" y="628"/>
			<point x="558" y="580" type="curve"/>
			<point x="558" y="632" type="line"/>
			<point x="489" y="651" type="line"/>
			<point x="525" y="488" type="line"/>
			<point x="578" y="488" type="line"/>
			<point x="578" y="637" type="line"/>
			<point x="511" y="676"/>
			<point x="441" y="685"/>
			<point x="389" y="685" type="curve" smooth="yes"/>
			<point x="192" y="685"/>
			<point x="48" y="535"/>
			<point x="48" y="335" type="curve" smooth="yes"/>
			<point x="48" y="131"/>
			<point x="186" y="-15"/>
			<point x="390" y="-15" type="curve" smooth="yes"/>
			<point x="458" y="-15"/>
			<point x="526" y="-1"/>
			<point x="588" y="33" type="curve"/>
			<point x="588" y="182" type="line"/>
			<point x="535" y="182" type="line"/>
			<point x="499" y="18" type="line"/>
			<point x="568" y="38" type="line"/>
			<point x="568" y="88" type="line"/>
			<point x="511" y="41"/>
			<point x="451" y="27"/>
		</contour>
	</outline>
</glyph>
<glyph name="E" format="1">
	<unicode hex="0045"/>
	<advance width="604"/>
	<outline>
		<contour>
			<point x="175" y="624" type="line"/>
			<point x="185" y="624" type="line"/>
			<point x="185" y="670" type="line"/>
			<point x="45" y="670" type="line"/>
			<point x="45" y="639" type="line"/>
		</contour>
		<contour>
			<point x="175" y="46" type="line"/>
			<point x="45" y="31" type="line"/>
			<point x="45" y="0" type="line"/>
			<point x="185" y="0" type="line"/>
			<point x="185" y="46" type="line"/>
		</contour>
		<contour>
			<point x="140" y="310" type="line" smooth="yes"/>
			<point x="140" y="205"/>
			<point x="140" y="101"/>
			<point x="137" y="0" type="curve"/>
			<point x="233" y="0" type="line"/>
			<point x="230" y="103"/>
			<point x="230" y="207"/>
			<point x="230" y="322" type="curve" smooth="yes"/>
			<point x="230" y="360" type="line" smooth="yes"/>
			<point x="230" y="465"/>
			<point x="230" y="569"/>
			<point x="233" y="670" type="curve"/>
			<point x="137" y="670" type="line"/>
			<point x="140" y="567"/>
			<point x="140" y="463"/>
			<point x="140" y="360" type="curve" smooth="yes"/>
		</contour>
		<contour>
			<point x="379" y="334" type="line"/>
			<point x="394" y="221" type="line"/>
			<point x="436" y="221" type="line"/>
			<point x="436" y="463" type="line"/>
			<point x="394" y="463" type="line"/>
			<point x="379" y="354" type="line"/>
		</contour>
		<contour>
			<point x="520" y="185" type="line"/>
			<point x="478" y="0" type="line"/>
			<point x="527" y="43" type="line"/>
			<point x="185" y="43" type="line"/>
			<point x="185" y="0" type="line"/>
			<point x="562" y="0" type="line"/>
			<point x="565" y="185" type="line"/>
		</contour>
		<contour>
			<point x="500" y="488" type="line"/>
			<point x="545" y="488" type="line"/>
			<point x="542" y="670" type="line"/>
			<point x="185" y="670" type="line"/>
			<point x="185" y="628" type="line"/>
			<point x="507" y="628" type="line"/>
			<point x="458" y="670" type="line"/>
		</contour>
		<contour>
			<point x="411" y="358" type="line"/>
			<point x="185" y="358" type="line"/>
			<point x="185" y="323" type="line"/>
			<point x="411" y="323" type="line"/>
		</contour>
	</outline>
</glyph>
<glyph name="F" format="1">
	<unicode hex="0046"/>
	<advance width="579"/>
	<outline>
		<contour>
			<point x="175" y="46" type="line"/>
			<point x="45" y="31" type="line"/>
			<point x="45" y="0" type="line"/>
			<point x="325" y="0" type="line"/>
			<point x="325" y="31" type="line"/>
			<point x="195" y="46" type="line"/>
		</contour>
		<contour>
			<point x="140" y="310" type="line" smooth="yes"/>
			<point x="140" y="205"/>
			<point x="140" y="101"/>
			<point x="137" y="0" type="curve"/>
			<point x="233" y="0" type="line"/>
			<point x="230" y="103"/>
			<point x="230" y="207"/>
			<point x="230" y="322" type="curve" smooth="yes"/>
			<point x="230" y="360" type="line" smooth="yes"/>
			<point x="230" y="465"/>
			<point x="230" y="569"/>
			<point x="233" y="670" type="curve"/>
			<point x="137" y="670" type="line"/>
			<point x="140" y="567"/>
			<point x="140" y="463"/>
			<point x="140" y="360" type="curve" smooth="yes"/>
		</contour>
		<contour>
			<point x="175" y="624" type="line"/>
			<point x="185" y="624" type="line"/>
			<point x="185" y="670" type="line"/>
			<point x="45" y="670" type="line"/>
			<point x="45" y="639" type="line"/>
		</contour>
		<contour>
			<point x="500" y="488" type="line"/>
			<point x="545" y="488" type="line"/>
			<point x="542" y="670" type="line"/>
			<point x="185" y="670" type="line"/>
			<point x="185" y="628" type="line"/>
			<point x="507" y="628" type="line"/>
			<point x="458" y="670" type="line"/>
		</contour>
		<contour>
			<point x="387" y="325" type="line"/>
			<point x="402" y="212" type="line"/>
			<point x="443" y="212" type="line"/>
			<point x="443" y="463" type="line"/>
			<point x="402" y="463" type="line"/>
			<point x="387" y="355" type="line"/>
		</contour>
		<contour>
			<point x="419" y="358" type="line"/>
			<point x="185" y="358" type="line"/>
			<point x="185" y="323" type="line"/>
			<point x="419" y="323" type="line"/>
		</contour>
	</outline>
</glyph>
<glyph name="H" format="1">
	<unicode hex="0048"/>
	<advance width="790"/>
	<outline>
		<contour>
			<point x="595" y="624" type="line"/>
			<point x="615" y="624" type="line"/>
			<point x="745" y="639" type="line"/>
			<point x="745" y="670" type="line"/>
			<point x="465" y="670" type="line"/>
			<point x="465" y="639" type="line"/>
		</contour>
		<contour>
			<point x="595" y="46" type="line"/>
			<point x="465" y="31" type="line"/>
			<point x="465" y="0" type="line"/>
			<point x="745" y="0" type="line"/>
			<point x="745" y="31" type="line"/>
			<point x="615" y="46" type="line"/>
		</contour>
		<contour>
			<point x="560" y="330" type="line" smooth="yes"/>
			<point x="560" y="205"/>
			<point x="560" y="101"/>
			<point x="557" y="0" type="curve"/>
			<point x="653" y="0" type="line"/>
			<point x="650" y="103"/>
			<point x="650" y="207"/>
			<point x="650" y="310" type="curve" smooth="yes"/>
			<point x="650" y="360" type="line" smooth="yes"/>
			<point x="650" y="465"/>
			<point x="650" y="569"/>
			<point x="653" y="670" type="curve"/>
			<point x="557" y="670" type="line"/>
			<point x="560" y="567"/>
			<point x="560" y="463"/>
			<point x="560" y="360" type="curve" smooth="yes"/>
		</contour>
		<contour>
			<point x="140" y="310" type="line" smooth="yes"/>
			<point x="140" y="205"/>
			<point x="140" y="101"/>
			<point x="137" y="0" type="curve"/>
			<point x="233" y="0" type="line"/>
			<point x="230" y="103"/>
			<point x="230" y="207"/>
			<point x="230" y="330" type="curve" smooth="yes"/>
			<point x="230" y="360" type="line" smooth="yes"/>
			<point x="230" y="465"/>
			<point x="230" y="569"/>
			<point x="233" y="670" type="curve"/>
			<point x="137" y="670" type="line"/>
			<point x="140" y="567"/>
			<point x="140" y="463"/>
			<point x="140" y="360" type="curve" smooth="yes"/>
		</contour>
		<contour>
			<point x="175" y="624" type="line"/>
			<point x="195" y="624" type="line"/>
			<point x="325" y="639" type="line"/>
			<point x="325" y="670" type="line"/>
			<point x="45" y="670" type="line"/>
			<point x="45" y="639" type="line"/>
		</contour>
		<contour>
			<point x="175" y="46" type="line"/>
			<point x="45" y="31" type="line"/>
			<point x="45" y="0" type="line"/>
			<point x="325" y="0" type="line"/>
			<point x="325" y="31" type="line"/>
			<point x="195" y="46" type="line"/>
		</contour>
		<contour>
			<point x="605" y="322" type="line"/>
			<point x="605" y="359" type="line"/>
			<point x="185" y="359" type="line"/>
			<point x="185" y="322" type="line"/>
		</contour>
	</outline>
</glyph>
<glyph name="J" format="1">
	<unicode hex="004A"/>
	<advance width="373"/>
	<outline>
		<contour>
			<point x="150" y="670" type="line"/>
			<point x="155" y="169"/>
			<point x="160" y="65"/>
			<point x="160" y="5" type="curve" smooth="yes"/>
			<point x="160" y="-67"/>
			<point x="148" y="-107"/>
			<point x="106" y="-134" type="curve"/>
			<point x="105" y="-141" type="line"/>
			<point x="113" y="-142" type="line"/>
			<point x="124" y="-123" type="line"/>
			<point x="90" y="-95" type="line" smooth="yes"/>
			<point x="63" y="-73"/>
			<point x="44" y="-66"/>
			<point x="20" y="-66" type="curve" smooth="yes"/>
			<point x="-11" y="-66"/>
			<point x="-34" y="-78"/>
			<point x="-40" y="-114" type="curve"/>
			<point x="-31" y="-152"/>
			<point x="8" y="-162"/>
			<point x="45" y="-162" type="curve" smooth="yes"/>
			<point x="128" y="-162"/>
			<point x="212" y="-113"/>
			<point x="231" y="-13" type="curve" smooth="yes"/>
			<point x="241" y="38"/>
			<point x="243" y="89"/>
			<point x="243" y="201" type="curve" smooth="yes"/>
			<point x="243" y="360" type="line" smooth="yes"/>
			<point x="243" y="465"/>
			<point x="243" y="569"/>
			<point x="246" y="670" type="curve"/>
		</contour>
		<contour>
			<point x="48" y="639" type="line"/>
			<point x="189" y="624" type="line"/>
			<point x="208" y="624" type="line"/>
			<point x="338" y="639" type="line"/>
			<point x="338" y="670" type="line"/>
			<point x="48" y="670" type="line"/>
		</contour>
	</outline>
</glyph>
<glyph name="K" format="1">
	<unicode hex="004B"/>
	<advance width="665"/>
	<outline>
		<contour>
			<point x="140" y="310" type="line" smooth="yes"/>
			<point x="140" y="205"/>
			<point x="140" y="101"/>
			<point x="137" y="0" type="curve"/>
			<point x="230" y="0" type="line"/>
			<point x="227" y="103"/>
			<point x="227" y="207"/>
			<point x="227" y="284" type="curve" smooth="yes"/>
			<point x="227" y="360" type="line" smooth="yes"/>
			<point x="227" y="465"/>
			<point x="227" y="569"/>
			<point x="230" y="670" type="curve"/>
			<point x="137" y="670" type="line"/>
			<point x="140" y="567"/>
			<point x="140" y="463"/>
			<point x="140" y="360" type="curve" smooth="yes"/>
		</contour>
		<contour>
			<point x="175" y="46" type="line"/>
			<point x="45" y="31" type="line"/>
			<point x="45" y="0" type="line"/>
			<point x="325" y="0" type="line"/>
			<point x="325" y="31" type="line"/>
			<point x="195" y="46" type="line"/>
		</contour>
		<contour>
			<point x="175" y="624" type="line"/>
			<point x="195" y="624" type="line"/>
			<point x="325" y="639" type="line"/>
			<point x="325" y="670" type="line"/>
			<point x="45" y="670" type="line"/>
			<point x="45" y="639" type="line"/>
		</contour>
		<contour>
			<point x="521" y="619" type="line"/>
			<point x="541" y="624" type="line"/>
			<point x="646" y="639" type="line"/>
			<point x="646" y="670" type="line"/>
			<point x="416" y="670" type="line"/>
			<point x="416" y="639" type="line"/>
		</contour>
		<contour>
			<point x="316" y="374" type="line"/>
			<point x="518" y="0" type="line"/>
			<point x="612" y="0" type="line"/>
			<point x="368" y="437" type="line"/>
		</contour>
		<contour>
			<point x="188" y="187" type="line"/>
			<point x="585" y="670" type="line"/>
			<point x="532" y="670" type="line"/>
			<point x="188" y="242" type="line"/>
		</contour>
		<contour>
			<point x="407" y="0" type="line"/>
			<point x="665" y="0" type="line"/>
			<point x="665" y="31" type="line"/>
			<point x="542" y="46" type="line"/>
			<point x="527" y="46" type="line"/>
			<point x="407" y="31" type="line"/>
		</contour>
	</outline>
</glyph>
<glyph name="L" format="1">
	<unicode hex="004C"/>
	<advance width="597"/>
	<outline>
		<contour>
			<point x="175" y="46" type="line"/>
			<point x="45" y="31" type="line"/>
			<point x="45" y="0" type="line"/>
			<point x="185" y="0" type="line"/>
			<point x="185" y="46" type="line"/>
		</contour>
		<contour>
			<point x="175" y="624" type="line"/>
			<point x="195" y="624" type="line"/>
			<point x="325" y="639" type="line"/>
			<point x="325" y="670" type="line"/>
			<point x="45" y="670" type="line"/>
			<point x="45" y="639" type="line"/>
		</contour>
		<contour>
			<point x="140" y="360" type="curve" smooth="yes"/>
			<point x="140" y="310" type="line" smooth="yes"/>
			<point x="140" y="207"/>
			<point x="140" y="103"/>
			<point x="137" y="0" type="curve"/>
			<point x="233" y="0" type="line"/>
			<point x="230" y="101"/>
			<point x="230" y="205"/>
			<point x="230" y="290" type="curve" smooth="yes"/>
			<point x="230" y="360" type="line" smooth="yes"/>
			<point x="230" y="463"/>
			<point x="230" y="567"/>
			<point x="233" y="670" type="curve"/>
			<point x="137" y="670" type="line"/>
			<point x="140" y="569"/>
			<point x="140" y="465"/>
		</contour>
		<contour>
			<point x="498" y="192" type="line"/>
			<point x="449" y="0" type="line"/>
			<point x="507" y="42" type="line"/>
			<point x="185" y="42" type="line"/>
			<point x="185" y="0" type="line"/>
			<point x="542" y="0" type="line"/>
			<point x="546" y="192" type="line"/>
		</contour>
	</outline>
</glyph>
<glyph name="M" format="1">
	<unicode hex="004D"/>
	<advance width="902"/>
	<outline>
		<contour>
			<point x="39" y="0" type="line"/>
			<point x="261" y="0" type="line"/>
			<point x="261" y="31" type="line"/>
			<point x="159" y="46" type="line"/>
			<point x="142" y="46" type="line"/>
			<point x="39" y="31" type="line"/>
		</contour>
		<contour>
			<point x="40" y="639" type="line"/>
			<point x="151" y="624" type="line"/>
			<point x="163" y="624" type="line"/>
			<point x="164" y="670" type="line"/>
			<point x="40" y="670" type="line"/>
		</contour>
		<contour>
			<point x="130" y="0" type="line"/>
			<point x="174" y="0" type="line"/>
			<point x="174" y="366" type="line" smooth="yes"/>
			<point x="174" y="413"/>
			<point x="167" y="594"/>
			<point x="165" y="670" type="curve"/>
			<point x="130" y="670" type="line"/>
		</contour>
		<contour>
			<point x="406" y="0" type="line"/>
			<point x="445" y="0" type="line"/>
			<point x="709" y="670" type="line"/>
			<point x="667" y="670" type="line"/>
			<point x="432" y="71" type="line"/>
			<point x="464" y="71" type="line"/>
			<point x="218" y="670" type="line"/>
			<point x="131" y="670" type="line"/>
		</contour>
		<contour>
			<point x="587" y="0" type="line"/>
			<point x="857" y="0" type="line"/>
			<point x="857" y="31" type="line"/>
			<point x="726" y="46" type="line"/>
			<point x="714" y="46" type="line"/>
			<point x="587" y="31" type="line"/>
		</contour>
		<contour>
			<point x="671" y="0" type="curve"/>
			<point x="765" y="0" type="line"/>
			<point x="762" y="103"/>
			<point x="762" y="207"/>
			<point x="762" y="310" type="curve" smooth="yes"/>
			<point x="762" y="360" type="line" smooth="yes"/>
			<point x="762" y="465"/>
			<point x="762" y="569"/>
			<point x="765" y="670" type="curve"/>
			<point x="674" y="670" type="line"/>
			<point x="674" y="310" type="line" smooth="yes"/>
			<point x="674" y="205"/>
			<point x="674" y="101"/>
		</contour>
		<contour>
			<point x="717" y="624" type="line"/>
			<point x="727" y="624" type="line"/>
			<point x="858" y="639" type="line"/>
			<point x="858" y="670" type="line"/>
			<point x="717" y="670" type="line"/>
		</contour>
	</outline>
</glyph>
<glyph name="N" format="1">
	<unicode hex="004E"/>
	<advance width="735"/>
	<outline>
		<contour>
			<point x="36" y="0" type="line"/>
			<point x="269" y="0" type="line"/>
			<point x="269" y="31" type="line"/>
			<point x="156" y="46" type="line"/>
			<point x="136" y="46" type="line"/>
			<point x="36" y="31" type="line"/>
		</contour>
		<contour>
			<point x="578" y="-7" type="line"/>
			<point x="610" y="-7" type="line"/>
			<point x="610" y="103" type="line"/>
			<point x="195" y="670" type="line"/>
			<point x="45" y="670" type="line"/>
			<point x="45" y="639" type="line"/>
			<point x="165" y="621" type="line"/>
			<point x="101" y="642" type="line"/>
		</contour>
		<contour>
			<point x="119" y="0" type="line"/>
			<point x="163" y="0" type="line"/>
			<point x="160" y="652" type="line"/>
			<point x="122" y="670" type="line"/>
		</contour>
		<contour>
			<point x="462" y="639" type="line"/>
			<point x="579" y="624" type="line"/>
			<point x="599" y="624" type="line"/>
			<point x="695" y="639" type="line"/>
			<point x="695" y="670" type="line"/>
			<point x="462" y="670" type="line"/>
		</contour>
		<contour>
			<point x="572" y="33" type="line"/>
			<point x="610" y="-7" type="line"/>
			<point x="613" y="670" type="line"/>
			<point x="569" y="670" type="line"/>
		</contour>
	</outline>
</glyph>
<glyph name="R" format="1">
	<unicode hex="0052"/>
	<advance width="649"/>
	<outline>
		<contour>
			<point x="175" y="46" type="line"/>
			<point x="45" y="31" type="line"/>
			<point x="45" y="0" type="line"/>
			<point x="325" y="0" type="line"/>
			<point x="325" y="31" type="line"/>
			<point x="195" y="46" type="line"/>
		</contour>
		<contour>
			<point x="140" y="310" type="line" smooth="yes"/>
			<point x="140" y="205"/>
			<point x="140" y="101"/>
			<point x="137" y="0" type="curve"/>
			<point x="233" y="0" type="line"/>
			<point x="230" y="103"/>
			<point x="230" y="207"/>
			<point x="230" y="320" type="curve" smooth="yes"/>
			<point x="230" y="350" type="line" smooth="yes"/>
			<point x="230" y="468"/>
			<point x="230" y="566"/>
			<point x="233" y="670" type="curve"/>
			<point x="137" y="670" type="line"/>
			<point x="140" y="567"/>
			<point x="140" y="463"/>
			<point x="140" y="360" type="curve" smooth="yes"/>
		</contour>
		<contour>
			<point x="175" y="624" type="line"/>
			<point x="185" y="624" type="line"/>
			<point x="185" y="670" type="line"/>
			<point x="45" y="670" type="line"/>
			<point x="45" y="639" type="line"/>
		</contour>
		<contour>
			<point x="185" y="314" type="line"/>
			<point x="277" y="314" type="line" smooth="yes"/>
			<point x="363" y="314"/>
			<point x="400" y="299"/>
			<point x="420" y="215" type="curve" smooth="yes"/>
			<point x="461" y="52" type="line" smooth="yes"/>
			<point x="473" y="6"/>
			<point x="500" y="-10"/>
			<point x="562" y="-10" type="curve" smooth="yes"/>
			<point x="592" y="-10"/>
			<point x="620" y="-6"/>
			<point x="634" y="0" type="curve"/>
			<point x="634" y="31" type="line"/>
			<point x="531" y="41" type="line"/>
			<point x="562" y="29" type="line"/>
			<point x="513" y="199" type="line" smooth="yes"/>
			<point x="486" y="289"/>
			<point x="441" y="322"/>
			<point x="363" y="329" type="curve"/>
			<point x="360" y="321" type="line"/>
			<point x="497" y="332"/>
			<point x="565" y="409"/>
			<point x="565" y="494" type="curve" smooth="yes"/>
			<point x="565" y="605"/>
			<point x="475" y="670"/>
			<point x="322" y="670" type="curve" smooth="yes"/>
			<point x="185" y="670" type="line"/>
			<point x="185" y="633" type="line"/>
			<point x="321" y="633" type="line" smooth="yes"/>
			<point x="425" y="633"/>
			<point x="470" y="584"/>
			<point x="470" y="498" type="curve" smooth="yes"/>
			<point x="470" y="411"/>
			<point x="418" y="350"/>
			<point x="310" y="350" type="curve" smooth="yes"/>
			<point x="185" y="350" type="line"/>
		</contour>
	</outline>
</glyph>
<glyph name="S" format="1">
	<unicode hex="0053"/>
	<advance width="510"/>
	<outline>
		<contour>
			<point x="224" y="28" type="curve" smooth="yes"/>
			<point x="158" y="28"/>
			<point x="127" y="45"/>
			<point x="67" y="93" type="curve"/>
			<point x="73" y="47" type="line"/>
			<point x="136" y="17" type="line"/>
			<point x="95" y="182" type="line"/>
			<point x="50" y="182" type="line"/>
			<point x="44" y="38" type="line"/>
			<point x="89" y="9"/>
			<point x="160" y="-15"/>
			<point x="234" y="-15" type="curve" smooth="yes"/>
			<point x="371" y="-15"/>
			<point x="470" y="57"/>
			<point x="470" y="175" type="curve" smooth="yes"/>
			<point x="470" y="269"/>
			<point x="419" y="327"/>
			<point x="287" y="378" type="curve" smooth="yes"/>
			<point x="248" y="393" type="line" smooth="yes"/>
			<point x="175" y="421"/>
			<point x="134" y="460"/>
			<point x="134" y="525" type="curve" smooth="yes"/>
			<point x="134" y="603"/>
			<point x="193" y="642"/>
			<point x="278" y="642" type="curve" smooth="yes"/>
			<point x="329" y="642"/>
			<point x="361" y="628"/>
			<point x="410" y="577" type="curve"/>
			<point x="405" y="626" type="line"/>
			<point x="342" y="660" type="line"/>
			<point x="385" y="498" type="line"/>
			<point x="430" y="498" type="line"/>
			<point x="436" y="632" type="line"/>
			<point x="394" y="664"/>
			<point x="343" y="685"/>
			<point x="277" y="685" type="curve" smooth="yes"/>
			<point x="150" y="685"/>
			<point x="53" y="615"/>
			<point x="53" y="500" type="curve" smooth="yes"/>
			<point x="53" y="398"/>
			<point x="123" y="340"/>
			<point x="225" y="300" type="curve" smooth="yes"/>
			<point x="263" y="285" type="line" smooth="yes"/>
			<point x="350" y="251"/>
			<point x="389" y="220"/>
			<point x="389" y="153" type="curve" smooth="yes"/>
			<point x="389" y="72"/>
			<point x="324" y="28"/>
		</contour>
	</outline>
</glyph>
<glyph name="U" format="1">
	<unicode hex="0055"/>
	<advance width="727"/>
	<outline>
		<contour>
			<point x="584" y="621" type="line"/>
			<point x="694" y="639" type="line"/>
			<point x="694" y="670" type="line"/>
			<point x="454" y="670" type="line"/>
			<point x="454" y="639" type="line"/>
			<point x="564" y="621" type="line"/>
		</contour>
		<contour>
			<point x="170" y="624" type="line"/>
			<point x="190" y="624" type="line"/>
			<point x="320" y="639" type="line"/>
			<point x="320" y="670" type="line"/>
			<point x="40" y="670" type="line"/>
			<point x="40" y="639" type="line"/>
		</contour>
		<contour>
			<point x="215" y="281" type="curve" smooth="yes"/>
			<point x="215" y="360" type="line" smooth="yes"/>
			<point x="215" y="465"/>
			<point x="215" y="569"/>
			<point x="218" y="670" type="curve"/>
			<point x="122" y="670" type="line"/>
			<point x="125" y="567"/>
			<point x="125" y="463"/>
			<point x="125" y="360" type="curve" smooth="yes"/>
			<point x="125" y="259" type="line" smooth="yes"/>
			<point x="125" y="66"/>
			<point x="224" y="-15"/>
			<point x="372" y="-15" type="curve" smooth="yes"/>
			<point x="502" y="-15"/>
			<point x="601" y="63"/>
			<point x="602" y="273" type="curve" smooth="yes"/>
			<point x="604" y="670" type="line"/>
			<point x="560" y="670" type="line"/>
			<point x="562" y="299" type="line" smooth="yes"/>
			<point x="562" y="117"/>
			<point x="502" y="51"/>
			<point x="385" y="51" type="curve" smooth="yes"/>
			<point x="281" y="51"/>
			<point x="215" y="106"/>
		</contour>
	</outline>
</glyph>
<glyph name="W" format="1">
	<unicode hex="0057"/>
	<advance width="961"/>
	<outline>
		<contour>
			<point x="844" y="624" type="line"/>
			<point x="947" y="639" type="line"/>
			<point x="947" y="670" type="line"/>
			<point x="719" y="670" type="line"/>
			<point x="719" y="639" type="line"/>
			<point x="824" y="624" type="line"/>
		</contour>
		<contour>
			<point x="517" y="624" type="line"/>
			<point x="639" y="639" type="line"/>
			<point x="639" y="670" type="line"/>
			<point x="369" y="670" type="line"/>
			<point x="369" y="639" type="line"/>
			<point x="493" y="624" type="line"/>
		</contour>
		<contour>
			<point x="165" y="624" type="line"/>
			<point x="285" y="639" type="line"/>
			<point x="285" y="670" type="line"/>
			<point x="15" y="670" type="line"/>
			<point x="15" y="639" type="line"/>
			<point x="145" y="624" type="line"/>
		</contour>
		<contour>
			<point x="304" y="109" type="line"/>
			<point x="329" y="109" type="line"/>
			<point x="178" y="670" type="line"/>
			<point x="85" y="670" type="line"/>
			<point x="280" y="-7" type="line"/>
			<point x="315" y="-7" type="line"/>
			<point x="508" y="608" type="line"/>
			<point x="467" y="564" type="line"/>
			<point x="659" y="-7" type="line"/>
			<point x="695" y="-7" type="line"/>
			<point x="875" y="670" type="line"/>
			<point x="829" y="670" type="line"/>
			<point x="680" y="109" type="line"/>
			<point x="701" y="109" type="line"/>
			<point x="520" y="670" type="line"/>
			<point x="490" y="670" type="line"/>
		</contour>
	</outline>
</glyph>
<glyph name="Z" format="1">
	<unicode hex="005A"/>
	<advance width="550"/>
	<outline>
		<contour>
			<point x="479" y="185" type="line"/>
			<point x="428" y="0" type="line"/>
			<point x="487" y="42" type="line"/>
			<point x="55" y="42" type="line"/>
			<point x="55" y="0" type="line"/>
			<point x="522" y="0" type="line"/>
			<point x="528" y="185" type="line"/>
		</contour>
		<contour>
			<point x="83" y="488" type="line"/>
			<point x="132" y="670" type="line"/>
			<point x="73" y="628" type="line"/>
			<point x="474" y="628" type="line"/>
			<point x="474" y="670" type="line"/>
			<point x="40" y="670" type="line"/>
			<point x="31" y="488" type="line"/>
		</contour>
		<contour>
			<point x="435" y="670" type="line"/>
			<point x="20" y="35" type="line"/>
			<point x="20" y="0" type="line"/>
			<point x="94" y="0" type="line"/>
			<point x="508" y="635" type="line"/>
			<point x="508" y="670" type="line"/>
		</contour>
	</outline>
</glyph>
<glyph name="asciicircum" format="1">
	<unicode hex="005E"/>
	<advance width="530"/>
	<outline>
		<contour>
			<point x="98" y="238" type="line"/>
			<point x="130" y="214" type="line"/>
			<point x="278" y="456" type="line"/>
			<point x="256" y="456" type="line"/>
			<point x="404" y="214" type="line"/>
			<point x="435" y="238" type="line"/>
			<point x="291" y="480" type="line"/>
			<point x="242" y="480" type="line"/>
		</contour>
	</outline>
</glyph>
<glyph name="grave" format="1">
	<unicode hex="0060"/>
	<advance width="400"/>
	<outline>
		<contour>
			<point x="264" y="573" type="line"/>
			<point x="236" y="620"/>
			<point x="208" y="668"/>
			<point x="180" y="717" type="curve" smooth="yes"/>
			<point x="163" y="747"/>
			<point x="142" y="757"/>
			<point x="126" y="757" type="curve" smooth="yes"/>
			<point x="107" y="757"/>
			<point x="89" y="745"/>
			<point x="89" y="720" type="curve" smooth="yes"/>
			<point x="89" y="707"/>
			<point x="94" y="691"/>
			<point x="122" y="667" type="curve" smooth="yes"/>
			<point x="164" y="632"/>
			<point x="204" y="597"/>
			<point x="247" y="560" type="curve"/>
		</contour>
	</outline>
</glyph>
<glyph name="b" format="1">
	<unicode hex="0062"/>
	<advance width="575"/>
	<outline>
		<contour>
			<point x="30" y="0" type="line"/>
			<point x="178" y="-10" type="line"/>
			<point x="188" y="74" type="line"/>
			<point x="188" y="388" type="line"/>
			<point x="185" y="399" type="line"/>
			<point x="185" y="590" type="line"/>
			<point x="189" y="733" type="line"/>
			<point x="176" y="740" type="line"/>
			<point x="25" y="695" type="line"/>
			<point x="25" y="667" type="line"/>
			<point x="108" y="657" type="line"/>
			<point x="108" y="210" type="line" smooth="yes"/>
			<point x="108" y="148"/>
			<point x="107" y="45"/>
			<point x="105" y="0" type="curve"/>
			<point x="138" y="44" type="line"/>
			<point x="30" y="28" type="line"/>
		</contour>
		<contour>
			<point x="307" y="36" type="curve" smooth="yes"/>
			<point x="270" y="36"/>
			<point x="217" y="50"/>
			<point x="172" y="104" type="curve"/>
			<point x="163" y="91" type="line"/>
			<point x="214" y="4"/>
			<point x="277" y="-13"/>
			<point x="327" y="-13" type="curve" smooth="yes"/>
			<point x="449" y="-13"/>
			<point x="529" y="94"/>
			<point x="529" y="241" type="curve" smooth="yes"/>
			<point x="529" y="396"/>
			<point x="445" y="487"/>
			<point x="339" y="487" type="curve" smooth="yes"/>
			<point x="280" y="487"/>
			<point x="218" y="458"/>
			<point x="164" y="389" type="curve"/>
			<point x="174" y="374" type="line"/>
			<point x="248" y="448"/>
			<point x="288" y="440"/>
			<point x="313" y="440" type="curve" smooth="yes"/>
			<point x="390" y="440"/>
			<point x="444" y="371"/>
			<point x="444" y="234" type="curve" smooth="yes"/>
			<point x="444" y="88"/>
			<point x="379" y="36"/>
		</contour>
	</outline>
</glyph>
<glyph name="d" format="1">
	<unicode hex="0064"/>
	<advance width="565"/>
	<outline>
		<contour>
			<point x="131" y="238" type="curve" smooth="yes"/>
			<point x="131" y="386"/>
			<point x="198" y="439"/>
			<point x="273" y="439" type="curve" smooth="yes"/>
			<point x="303" y="439"/>
			<point x="341" y="431"/>
			<point x="394" y="384" type="curve"/>
			<point x="404" y="408" type="line"/>
			<point x="355" y="473"/>
			<point x="305" y="487"/>
			<point x="259" y="487" type="curve" smooth="yes"/>
			<point x="132" y="487"/>
			<point x="46" y="387"/>
			<point x="46" y="233" type="curve" smooth="yes"/>
			<point x="46" y="89"/>
			<point x="130" y="-13"/>
			<point x="254" y="-13" type="curve" smooth="yes"/>
			<point x="322" y="-13"/>
			<point x="365" y="22"/>
			<point x="396" y="64" type="curve"/>
			<point x="389" y="92" type="line"/>
			<point x="347" y="44"/>
			<point x="316" y="35"/>
			<point x="275" y="35" type="curve" smooth="yes"/>
			<point x="193" y="35"/>
			<point x="131" y="90"/>
		</contour>
		<contour>
			<point x="451" y="36" type="line"/>
			<point x="467" y="0" type="line"/>
			<point x="467" y="590" type="line"/>
			<point x="471" y="733" type="line"/>
			<point x="458" y="740" type="line"/>
			<point x="304" y="695" type="line"/>
			<point x="304" y="667" type="line"/>
			<point x="390" y="658" type="line"/>
			<point x="390" y="402" type="line"/>
			<point x="387" y="389" type="line"/>
			<point x="387" y="87" type="line"/>
			<point x="397" y="-10" type="line"/>
			<point x="550" y="0" type="line"/>
			<point x="550" y="27" type="line"/>
		</contour>
	</outline>
</glyph>
<glyph name="f" format="1">
	<unicode hex="0066"/>
	<advance width="354"/>
	<outline>
		<contour>
			<point x="169" y="44" type="line"/>
			<point x="149" y="44" type="line"/>
			<point x="36" y="27" type="line"/>
			<point x="36" y="0" type="line"/>
			<point x="292" y="0" type="line"/>
			<point x="292" y="27" type="line"/>
		</contour>
		<contour>
			<point x="159" y="474" type="line"/>
			<point x="159" y="435" type="line"/>
			<point x="337" y="435" type="line"/>
			<point x="337" y="474" type="line"/>
		</contour>
		<contour>
			<point x="119" y="210" type="line" smooth="yes"/>
			<point x="119" y="140"/>
			<point x="118" y="70"/>
			<point x="116" y="0" type="curve"/>
			<point x="202" y="0" type="line"/>
			<point x="200" y="70"/>
			<point x="199" y="140"/>
			<point x="199" y="210" type="curve" smooth="yes"/>
			<point x="199" y="442" type="line"/>
			<point x="191" y="566"/>
			<point x="206" y="634"/>
			<point x="229" y="675" type="curve" smooth="yes"/>
			<point x="247" y="707"/>
			<point x="282" y="724"/>
			<point x="312" y="724" type="curve" smooth="yes"/>
			<point x="324" y="724"/>
			<point x="339" y="715"/>
			<point x="351" y="708" type="curve"/>
			<point x="328" y="738" type="line"/>
			<point x="244" y="722" type="line"/>
			<point x="294" y="680" type="line" smooth="yes"/>
			<point x="316" y="662"/>
			<point x="337" y="653"/>
			<point x="364" y="653" type="curve" smooth="yes"/>
			<point x="400" y="653"/>
			<point x="422" y="672"/>
			<point x="424" y="697" type="curve"/>
			<point x="414" y="735"/>
			<point x="376" y="750"/>
			<point x="329" y="750" type="curve" smooth="yes"/>
			<point x="284" y="750"/>
			<point x="233" y="736"/>
			<point x="190" y="689" type="curve" smooth="yes"/>
			<point x="145" y="641"/>
			<point x="129" y="580"/>
			<point x="119" y="465" type="curve"/>
			<point x="148" y="480" type="line"/>
			<point x="35" y="465" type="line"/>
			<point x="35" y="435" type="line"/>
			<point x="119" y="435" type="line"/>
		</contour>
	</outline>
</glyph>
<glyph name="g" format="1">
	<unicode hex="0067"/>
	<advance width="516"/>
	<outline>
		<contour>
			<point x="240" y="-202" type="curve" smooth="yes"/>
			<point x="170" y="-202"/>
			<point x="117" y="-173"/>
			<point x="117" y="-105" type="curve" smooth="yes"/>
			<point x="117" y="-66"/>
			<point x="133" y="-34"/>
			<point x="172" y="3" type="curve"/>
			<point x="173" y="6" type="line"/>
			<point x="67" y="-36"/>
			<point x="37" y="-72"/>
			<point x="37" y="-118" type="curve" smooth="yes"/>
			<point x="37" y="-190"/>
			<point x="100" y="-240"/>
			<point x="244" y="-240" type="curve" smooth="yes"/>
			<point x="405" y="-240"/>
			<point x="487" y="-154"/>
			<point x="487" y="-68" type="curve" smooth="yes"/>
			<point x="487" y="11"/>
			<point x="436" y="56"/>
			<point x="330" y="56" type="curve" smooth="yes"/>
			<point x="194" y="56" type="line" smooth="yes"/>
			<point x="145" y="56"/>
			<point x="134" y="75"/>
			<point x="134" y="106" type="curve" smooth="yes"/>
			<point x="134" y="136"/>
			<point x="146" y="158"/>
			<point x="176" y="191" type="curve"/>
			<point x="160" y="202" type="line"/>
			<point x="88" y="138"/>
			<point x="70" y="104"/>
			<point x="70" y="72" type="curve" smooth="yes"/>
			<point x="70" y="25"/>
			<point x="99" y="3"/>
			<point x="148" y="-10" type="curve"/>
			<point x="148" y="-11" type="line"/>
			<point x="165" y="-13"/>
			<point x="177" y="-13"/>
			<point x="202" y="-13" type="curve" smooth="yes"/>
			<point x="315" y="-13" type="line" smooth="yes"/>
			<point x="388" y="-13"/>
			<point x="416" y="-49"/>
			<point x="416" y="-97" type="curve" smooth="yes"/>
			<point x="416" y="-156"/>
			<point x="356" y="-202"/>
		</contour>
		<contour>
			<point x="60" y="323" type="curve" smooth="yes"/>
			<point x="60" y="212"/>
			<point x="136" y="156"/>
			<point x="239" y="156" type="curve" smooth="yes"/>
			<point x="340" y="156"/>
			<point x="418" y="215"/>
			<point x="418" y="323" type="curve" smooth="yes"/>
			<point x="418" y="433"/>
			<point x="342" y="487"/>
			<point x="240" y="487" type="curve" smooth="yes"/>
			<point x="138" y="487"/>
			<point x="60" y="429"/>
		</contour>
		<contour>
			<point x="241" y="454" type="curve" smooth="yes"/>
			<point x="304" y="454"/>
			<point x="340" y="402"/>
			<point x="340" y="325" type="curve" smooth="yes"/>
			<point x="340" y="245"/>
			<point x="301" y="189"/>
			<point x="236" y="189" type="curve" smooth="yes"/>
			<point x="174" y="189"/>
			<point x="138" y="242"/>
			<point x="138" y="321" type="curve" smooth="yes"/>
			<point x="138" y="400"/>
			<point x="177" y="454"/>
		</contour>
		<contour>
			<point x="346" y="442" type="line"/>
			<point x="346" y="422" type="line"/>
			<point x="493" y="415" type="line"/>
			<point x="493" y="477" type="line"/>
			<point x="478" y="487" type="line"/>
		</contour>
	</outline>
</glyph>
<glyph name="h" format="1">
	<unicode hex="0068"/>
	<advance width="600"/>
	<outline>
		<contour>
			<point x="369" y="487" type="curve" smooth="yes"/>
			<point x="293" y="487"/>
			<point x="214" y="433"/>
			<point x="169" y="375" type="curve"/>
			<point x="214" y="393" type="line"/>
			<point x="163" y="393" type="line"/>
			<point x="163" y="359" type="line"/>
			<point x="181" y="359" type="line"/>
			<point x="238" y="410"/>
			<point x="279" y="427"/>
			<point x="330" y="427" type="curve" smooth="yes"/>
			<point x="388" y="427"/>
			<point x="416" y="397"/>
			<point x="416" y="304" type="curve" smooth="yes"/>
			<point x="416" y="210" type="line" smooth="yes"/>
			<point x="416" y="146"/>
			<point x="415" y="45"/>
			<point x="413" y="0" type="curve"/>
			<point x="499" y="0" type="line"/>
			<point x="497" y="45"/>
			<point x="496" y="146"/>
			<point x="496" y="210" type="curve" smooth="yes"/>
			<point x="496" y="301" type="line" smooth="yes"/>
			<point x="496" y="435"/>
			<point x="455" y="487"/>
		</contour>
		<contour>
			<point x="449" y="44" type="line"/>
			<point x="339" y="27" type="line"/>
			<point x="339" y="0" type="line"/>
			<point x="569" y="0" type="line"/>
			<point x="569" y="27" type="line"/>
			<point x="469" y="44" type="line"/>
		</contour>
		<contour>
			<point x="160" y="44" type="line"/>
			<point x="140" y="44" type="line"/>
			<point x="30" y="27" type="line"/>
			<point x="30" y="0" type="line"/>
			<point x="260" y="0" type="line"/>
			<point x="260" y="27" type="line"/>
		</contour>
		<contour>
			<point x="108" y="210" type="line" smooth="yes"/>
			<point x="108" y="148"/>
			<point x="107" y="45"/>
			<point x="105" y="0" type="curve"/>
			<point x="191" y="0" type="line"/>
			<point x="189" y="45"/>
			<point x="188" y="148"/>
			<point x="188" y="210" type="curve" smooth="yes"/>
			<point x="188" y="380" type="line"/>
			<point x="185" y="393" type="line"/>
			<point x="185" y="590" type="line"/>
			<point x="189" y="733" type="line"/>
			<point x="176" y="740" type="line"/>
			<point x="25" y="695" type="line"/>
			<point x="25" y="667" type="line"/>
			<point x="108" y="658" type="line"/>
		</contour>
	</outline>
</glyph>
<glyph name="j" format="1">
	<unicode hex="006A"/>
	<advance width="275"/>
	<outline>
		<contour>
			<point x="152" y="600" type="curve" smooth="yes"/>
			<point x="189" y="600"/>
			<point x="218" y="626"/>
			<point x="218" y="663" type="curve" smooth="yes"/>
			<point x="218" y="701"/>
			<point x="189" y="726"/>
			<point x="152" y="726" type="curve" smooth="yes"/>
			<point x="115" y="726"/>
			<point x="86" y="701"/>
			<point x="86" y="663" type="curve" smooth="yes"/>
			<point x="86" y="626"/>
			<point x="115" y="600"/>
		</contour>
		<contour>
			<point x="113" y="107" type="line" smooth="yes"/>
			<point x="113" y="-58"/>
			<point x="107" y="-141"/>
			<point x="91" y="-182" type="curve" smooth="yes"/>
			<point x="75" y="-219"/>
			<point x="51" y="-223"/>
			<point x="23" y="-223" type="curve" smooth="yes"/>
			<point x="12" y="-223"/>
			<point x="-10" y="-221"/>
			<point x="-32" y="-213" type="curve"/>
			<point x="-5" y="-241" type="line"/>
			<point x="91" y="-216" type="line"/>
			<point x="49" y="-184" type="line" smooth="yes"/>
			<point x="24" y="-163"/>
			<point x="3" y="-154"/>
			<point x="-24" y="-154" type="curve" smooth="yes"/>
			<point x="-52" y="-154"/>
			<point x="-72" y="-167"/>
			<point x="-81" y="-193" type="curve"/>
			<point x="-81" y="-219"/>
			<point x="-55" y="-250"/>
			<point x="10" y="-250" type="curve" smooth="yes"/>
			<point x="72" y="-250"/>
			<point x="99" y="-228"/>
			<point x="130" y="-194" type="curve" smooth="yes"/>
			<point x="183" y="-137"/>
			<point x="189" y="-63"/>
			<point x="189" y="103" type="curve" smooth="yes"/>
			<point x="189" y="342" type="line"/>
			<point x="192" y="478" type="line"/>
			<point x="180" y="487" type="line"/>
			<point x="30" y="428" type="line"/>
			<point x="30" y="401" type="line"/>
			<point x="110" y="392" type="line"/>
			<point x="112" y="352"/>
			<point x="113" y="321"/>
			<point x="113" y="266" type="curve" smooth="yes"/>
		</contour>
	</outline>
</glyph>
<glyph name="k" format="1">
	<unicode hex="006B"/>
	<advance width="544"/>
	<outline>
		<contour>
			<point x="411" y="427" type="line"/>
			<point x="518" y="442" type="line"/>
			<point x="518" y="474" type="line"/>
			<point x="286" y="474" type="line"/>
			<point x="286" y="442" type="line"/>
			<point x="381" y="420" type="line"/>
		</contour>
		<contour>
			<point x="415" y="474" type="line"/>
			<point x="148" y="196" type="line"/>
			<point x="148" y="148" type="line"/>
			<point x="469" y="474" type="line"/>
		</contour>
		<contour>
			<point x="25" y="695" type="line"/>
			<point x="25" y="667" type="line"/>
			<point x="108" y="658" type="line"/>
			<point x="108" y="210" type="line" smooth="yes"/>
			<point x="108" y="140"/>
			<point x="107" y="70"/>
			<point x="105" y="0" type="curve"/>
			<point x="191" y="0" type="line"/>
			<point x="189" y="70"/>
			<point x="188" y="140"/>
			<point x="188" y="210" type="curve" smooth="yes"/>
			<point x="188" y="590" type="line"/>
			<point x="192" y="733" type="line"/>
			<point x="179" y="740" type="line"/>
		</contour>
		<contour>
			<point x="158" y="44" type="line"/>
			<point x="138" y="44" type="line"/>
			<point x="25" y="27" type="line"/>
			<point x="25" y="0" type="line"/>
			<point x="271" y="0" type="line"/>
			<point x="271" y="27" type="line"/>
		</contour>
		<contour>
			<point x="498" y="16" type="line"/>
			<point x="301" y="324" type="line"/>
			<point x="245" y="266" type="line"/>
			<point x="412" y="0" type="line"/>
			<point x="544" y="0" type="line"/>
			<point x="544" y="27" type="line"/>
			<point x="434" y="41" type="line"/>
		</contour>
	</outline>
</glyph>
<glyph name="p" format="1">
	<unicode hex="0070"/>
	<advance width="581"/>
	<outline>
		<contour>
			<point x="450" y="230" type="curve" smooth="yes"/>
			<point x="450" y="90"/>
			<point x="388" y="36"/>
			<point x="309" y="36" type="curve" smooth="yes"/>
			<point x="268" y="36"/>
			<point x="223" y="51"/>
			<point x="178" y="105" type="curve"/>
			<point x="169" y="94" type="line"/>
			<point x="220" y="5"/>
			<point x="281" y="-13"/>
			<point x="329" y="-13" type="curve" smooth="yes"/>
			<point x="447" y="-13"/>
			<point x="535" y="85"/>
			<point x="535" y="239" type="curve" smooth="yes"/>
			<point x="535" y="393"/>
			<point x="451" y="487"/>
			<point x="346" y="487" type="curve" smooth="yes"/>
			<point x="284" y="487"/>
			<point x="221" y="457"/>
			<point x="169" y="384" type="curve"/>
			<point x="178" y="368" type="line"/>
			<point x="255" y="445"/>
			<point x="297" y="440"/>
			<point x="322" y="440" type="curve" smooth="yes"/>
			<point x="398" y="440"/>
			<point x="450" y="370"/>
		</contour>
		<contour>
			<point x="168" y="-197" type="line"/>
			<point x="148" y="-197" type="line"/>
			<point x="35" y="-213" type="line"/>
			<point x="35" y="-240" type="line"/>
			<point x="291" y="-240" type="line"/>
			<point x="291" y="-213" type="line"/>
		</contour>
		<contour>
			<point x="119" y="-30" type="line" smooth="yes"/>
			<point x="119" y="-100"/>
			<point x="118" y="-170"/>
			<point x="116" y="-240" type="curve"/>
			<point x="199" y="-240" type="line"/>
			<point x="197" y="-170"/>
			<point x="196" y="-98"/>
			<point x="196" y="-28" type="curve" smooth="yes"/>
			<point x="196" y="64" type="line"/>
			<point x="199" y="70" type="line"/>
			<point x="199" y="398" type="line"/>
			<point x="196" y="396" type="line"/>
			<point x="187" y="477" type="line"/>
			<point x="173" y="487" type="line"/>
			<point x="36" y="427" type="line"/>
			<point x="36" y="399" type="line"/>
			<point x="116" y="390" type="line"/>
			<point x="118" y="350"/>
			<point x="119" y="319"/>
			<point x="119" y="264" type="curve" smooth="yes"/>
		</contour>
	</outline>
</glyph>
<glyph name="q" format="1">
	<unicode hex="0071"/>
	<advance width="555"/>
	<outline>
		<contour>
			<point x="131" y="235" type="curve" smooth="yes"/>
			<point x="131" y="382"/>
			<point x="196" y="439"/>
			<point x="271" y="439" type="curve" smooth="yes"/>
			<point x="304" y="439"/>
			<point x="339" y="428"/>
			<point x="390" y="382" type="curve"/>
			<point x="401" y="406" type="line"/>
			<point x="357" y="469"/>
			<point x="305" y="487"/>
			<point x="254" y="487" type="curve" smooth="yes"/>
			<point x="133" y="487"/>
			<point x="46" y="383"/>
			<point x="46" y="233" type="curve" smooth="yes"/>
			<point x="46" y="88"/>
			<point x="128" y="-13"/>
			<point x="250" y="-13" type="curve" smooth="yes"/>
			<point x="310" y="-13"/>
			<point x="358" y="13"/>
			<point x="396" y="66" type="curve"/>
			<point x="390" y="91" type="line"/>
			<point x="347" y="45"/>
			<point x="316" y="35"/>
			<point x="275" y="35" type="curve" smooth="yes"/>
			<point x="192" y="35"/>
			<point x="131" y="88"/>
		</contour>
		<contour>
			<point x="422" y="-197" type="line"/>
			<point x="299" y="-213" type="line"/>
			<point x="299" y="-240" type="line"/>
			<point x="555" y="-240" type="line"/>
			<point x="555" y="-213" type="line"/>
			<point x="442" y="-197" type="line"/>
		</contour>
		<contour>
			<point x="471" y="-28" type="curve" smooth="yes"/>
			<point x="471" y="342" type="line"/>
			<point x="474" y="477" type="line"/>
			<point x="467" y="487" type="line"/>
			<point x="391" y="414" type="line"/>
			<point x="391" y="79" type="line"/>
			<point x="394" y="65" type="line"/>
			<point x="394" y="-28" type="line" smooth="yes"/>
			<point x="394" y="-98"/>
			<point x="393" y="-170"/>
			<point x="391" y="-240" type="curve"/>
			<point x="474" y="-240" type="line"/>
			<point x="472" y="-170"/>
			<point x="471" y="-98"/>
		</contour>
	</outline>
</glyph>
<glyph name="v" format="1">
	<unicode hex="0076"/>
	<advance width="504"/>
	<outline>
		<contour>
			<point x="430" y="427" type="line"/>
			<point x="494" y="442" type="line"/>
			<point x="494" y="474" type="line"/>
			<point x="311" y="474" type="line"/>
			<point x="311" y="442" type="line"/>
			<point x="410" y="427" type="line"/>
		</contour>
		<contour>
			<point x="39" y="474" type="line"/>
			<point x="237" y="-6" type="line"/>
			<point x="274" y="-6" type="line"/>
			<point x="456" y="474" type="line"/>
			<point x="412" y="474" type="line"/>
			<point x="255" y="22" type="line"/>
			<point x="288" y="64" type="line"/>
			<point x="134" y="474" type="line"/>
		</contour>
		<contour>
			<point x="116" y="428" type="line"/>
			<point x="240" y="442" type="line"/>
			<point x="240" y="474" type="line"/>
			<point x="0" y="474" type="line"/>
			<point x="0" y="442" type="line"/>
			<point x="96" y="428" type="line"/>
		</contour>
	</outline>
</glyph>
<glyph name="w" format="1">
	<unicode hex="0077"/>
	<advance width="762"/>
	<outline>
		<contour>
			<point x="399" y="427" type="line"/>
			<point x="419" y="427" type="line"/>
			<point x="514" y="442" type="line"/>
			<point x="514" y="474" type="line"/>
			<point x="296" y="474" type="line"/>
			<point x="296" y="442" type="line"/>
		</contour>
		<contour>
			<point x="118" y="427" type="line"/>
			<point x="229" y="442" type="line"/>
			<point x="229" y="474" type="line"/>
			<point x="0" y="474" type="line"/>
			<point x="0" y="442" type="line"/>
			<point x="98" y="427" type="line"/>
		</contour>
		<contour>
			<point x="685" y="426" type="line"/>
			<point x="753" y="442" type="line"/>
			<point x="753" y="474" type="line"/>
			<point x="570" y="474" type="line"/>
			<point x="570" y="442" type="line"/>
			<point x="665" y="426" type="line"/>
		</contour>
		<contour>
			<point x="391" y="474" type="line"/>
			<point x="231" y="21" type="line"/>
			<point x="266" y="81" type="line"/>
			<point x="132" y="474" type="line"/>
			<point x="42" y="474" type="line"/>
			<point x="221" y="-6" type="line"/>
			<point x="252" y="-6" type="line"/>
			<point x="406" y="402" type="line"/>
			<point x="373" y="396" type="line"/>
			<point x="398" y="321"/>
			<point x="423" y="245"/>
			<point x="520" y="-6" type="curve"/>
			<point x="551" y="-6" type="line"/>
			<point x="713" y="474" type="line"/>
			<point x="667" y="474" type="line"/>
			<point x="533" y="21" type="line"/>
			<point x="566" y="81" type="line"/>
			<point x="414" y="474" type="line"/>
		</contour>
	</outline>
</glyph>
<glyph name="x" format="1">
	<unicode hex="0078"/>
	<advance width="524"/>
	<outline>
		<contour>
			<point x="53" y="474" type="line"/>
			<point x="232" y="213" type="line"/>
			<point x="380" y="0" type="line"/>
			<point x="472" y="0" type="line"/>
			<point x="282" y="271" type="line"/>
			<point x="141" y="474" type="line"/>
		</contour>
		<contour>
			<point x="91" y="43" type="line"/>
			<point x="8" y="27" type="line"/>
			<point x="8" y="0" type="line"/>
			<point x="207" y="0" type="line"/>
			<point x="207" y="27" type="line"/>
			<point x="112" y="43" type="line"/>
		</contour>
		<contour>
			<point x="142" y="427" type="line"/>
			<point x="238" y="442" type="line"/>
			<point x="238" y="474" type="line"/>
			<point x="17" y="474" type="line"/>
			<point x="17" y="442" type="line"/>
			<point x="121" y="427" type="line"/>
		</contour>
		<contour>
			<point x="383" y="44" type="line"/>
			<point x="271" y="27" type="line"/>
			<point x="271" y="0" type="line"/>
			<point x="514" y="0" type="line"/>
			<point x="514" y="27" type="line"/>
			<point x="404" y="44" type="line"/>
		</contour>
		<contour>
			<point x="424" y="428" type="line"/>
			<point x="504" y="442" type="line"/>
			<point x="504" y="474" type="line"/>
			<point x="317" y="474" type="line"/>
			<point x="317" y="442" type="line"/>
			<point x="403" y="428" type="line"/>
		</contour>
		<contour>
			<point x="92" y="0" type="line"/>
			<point x="273" y="238" type="line"/>
			<point x="249" y="258" type="line"/>
			<point x="39" y="0" type="line"/>
		</contour>
		<contour>
			<point x="425" y="474" type="line"/>
			<point x="247" y="243" type="line"/>
			<point x="272" y="221" type="line"/>
			<point x="480" y="474" type="line"/>
		</contour>
	</outline>
</glyph>
<glyph name="z" format="1">
	<unicode hex="007A"/>
	<advance width="455"/>
	<outline>
		<contour>
			<point x="44" y="474" type="line"/>
			<point x="36" y="325" type="line"/>
			<point x="75" y="321" type="line"/>
			<point x="119" y="474" type="line"/>
			<point x="87" y="437" type="line"/>
			<point x="349" y="437" type="line"/>
			<point x="349" y="474" type="line"/>
			<point x="30" y="31" type="line"/>
			<point x="30" y="0" type="line"/>
			<point x="420" y="0" type="line"/>
			<point x="430" y="163" type="line"/>
			<point x="391" y="163" type="line"/>
			<point x="344" y="0" type="line"/>
			<point x="384" y="37" type="line"/>
			<point x="97" y="37" type="line"/>
			<point x="97" y="0" type="line"/>
			<point x="415" y="443" type="line"/>
			<point x="415" y="474" type="line"/>
		</contour>
	</outline>
</glyph>
<glyph name="braceleft" format="1">
	<unicode hex="007B"/>
	<advance width="344"/>
	<outline>
		<contour>
			<point x="40" y="262" type="line"/>
			<point x="124" y="254"/>
			<point x="160" y="217"/>
			<point x="160" y="166" type="curve" smooth="yes"/>
			<point x="160" y="113"/>
			<point x="119" y="45"/>
			<point x="119" y="-38" type="curve" smooth="yes"/>
			<point x="119" y="-117"/>
			<point x="174" y="-159"/>
			<point x="269" y="-159" type="curve" smooth="yes"/>
			<point x="314" y="-159" type="line"/>
			<point x="314" y="-127" type="line"/>
			<point x="287" y="-124" type="line" smooth="yes"/>
			<point x="217" y="-116"/>
			<point x="189" y="-99"/>
			<point x="189" y="-38" type="curve" smooth="yes"/>
			<point x="189" y="40"/>
			<point x="210" y="115"/>
			<point x="210" y="156" type="curve" smooth="yes"/>
			<point x="210" y="230"/>
			<point x="176" y="277"/>
			<point x="71" y="279" type="curve"/>
			<point x="71" y="277" type="line"/>
			<point x="176" y="279"/>
			<point x="210" y="326"/>
			<point x="210" y="400" type="curve" smooth="yes"/>
			<point x="210" y="441"/>
			<point x="189" y="516"/>
			<point x="189" y="594" type="curve" smooth="yes"/>
			<point x="189" y="655"/>
			<point x="217" y="672"/>
			<point x="287" y="680" type="curve" smooth="yes"/>
			<point x="314" y="683" type="line"/>
			<point x="314" y="715" type="line"/>
			<point x="269" y="715" type="line" smooth="yes"/>
			<point x="174" y="715"/>
			<point x="119" y="673"/>
			<point x="119" y="594" type="curve" smooth="yes"/>
			<point x="119" y="511"/>
			<point x="160" y="443"/>
			<point x="160" y="390" type="curve" smooth="yes"/>
			<point x="160" y="339"/>
			<point x="124" y="302"/>
			<point x="40" y="294" type="curve"/>
		</contour>
	</outline>
</glyph>
<glyph name="cent" format="1">
	<unicode hex="00A2"/>
	<advance width="497"/>
	<outline>
		<contour>
			<point x="284" y="-45" type="line"/>
			<point x="284" y="660" type="line"/>
			<point x="252" y="660" type="line"/>
			<point x="252" y="-45" type="line"/>
		</contour>
		<contour>
			<point x="285" y="530" type="curve" smooth="yes"/>
			<point x="306" y="530"/>
			<point x="339" y="523"/>
			<point x="372" y="505" type="curve"/>
			<point x="325" y="539" type="line"/>
			<point x="341" y="472" type="line" smooth="yes"/>
			<point x="353" y="423"/>
			<point x="372" y="402"/>
			<point x="400" y="402" type="curve" smooth="yes"/>
			<point x="426" y="402"/>
			<point x="444" y="414"/>
			<point x="449" y="439" type="curve"/>
			<point x="436" y="513"/>
			<point x="364" y="568"/>
			<point x="271" y="568" type="curve" smooth="yes"/>
			<point x="157" y="568"/>
			<point x="44" y="471"/>
			<point x="44" y="314" type="curve" smooth="yes"/>
			<point x="44" y="161"/>
			<point x="136" y="63"/>
			<point x="262" y="63" type="curve" smooth="yes"/>
			<point x="362" y="63"/>
			<point x="425" y="109"/>
			<point x="452" y="192" type="curve"/>
			<point x="434" y="196" type="line"/>
			<point x="402" y="146"/>
			<point x="345" y="122"/>
			<point x="295" y="122" type="curve" smooth="yes"/>
			<point x="192" y="122"/>
			<point x="127" y="192"/>
			<point x="127" y="328" type="curve" smooth="yes"/>
			<point x="127" y="457"/>
			<point x="194" y="530"/>
		</contour>
	</outline>
</glyph>
<glyph name="section" format="1">
	<unicode hex="00A7"/>
	<advance width="488"/>
	<outline>
		<contour>
			<point x="262" y="685" type="curve" smooth="yes"/>
			<point x="145" y="685"/>
			<point x="91" y="612"/>
			<point x="91" y="543" type="curve" smooth="yes"/>
			<point x="91" y="475"/>
			<point x="132" y="417"/>
			<point x="248" y="364" type="curve" smooth="yes"/>
			<point x="324" y="330"/>
			<point x="378" y="307"/>
			<point x="378" y="251" type="curve" smooth="yes"/>
			<point x="378" y="212"/>
			<point x="354" y="166"/>
			<point x="315" y="147" type="curve"/>
			<point x="329" y="129" type="line"/>
			<point x="399" y="159"/>
			<point x="443" y="206"/>
			<point x="443" y="275" type="curve" smooth="yes"/>
			<point x="443" y="355"/>
			<point x="388" y="393"/>
			<point x="288" y="439" type="curve" smooth="yes"/>
			<point x="223" y="469"/>
			<point x="165" y="504"/>
			<point x="165" y="568" type="curve" smooth="yes"/>
			<point x="165" y="609"/>
			<point x="197" y="647"/>
			<point x="270" y="647" type="curve" smooth="yes"/>
			<point x="283" y="647"/>
			<point x="297" y="645"/>
			<point x="314" y="640" type="curve"/>
			<point x="277" y="663" type="line"/>
			<point x="310" y="594" type="line" smooth="yes"/>
			<point x="328" y="558"/>
			<point x="346" y="541"/>
			<point x="375" y="541" type="curve" smooth="yes"/>
			<point x="396" y="541"/>
			<point x="412" y="550"/>
			<point x="422" y="576" type="curve"/>
			<point x="421" y="634"/>
			<point x="352" y="685"/>
		</contour>
		<contour>
			<point x="225" y="-100" type="curve" smooth="yes"/>
			<point x="334" y="-100"/>
			<point x="397" y="-26"/>
			<point x="397" y="52" type="curve" smooth="yes"/>
			<point x="397" y="140"/>
			<point x="316" y="187"/>
			<point x="237" y="224" type="curve" smooth="yes"/>
			<point x="174" y="253"/>
			<point x="110" y="282"/>
			<point x="110" y="343" type="curve" smooth="yes"/>
			<point x="110" y="381"/>
			<point x="134" y="420"/>
			<point x="174" y="440" type="curve"/>
			<point x="160" y="458" type="line"/>
			<point x="82" y="425"/>
			<point x="45" y="379"/>
			<point x="45" y="320" type="curve" smooth="yes"/>
			<point x="45" y="229"/>
			<point x="112" y="191"/>
			<point x="200" y="148" type="curve" smooth="yes"/>
			<point x="277" y="111"/>
			<point x="323" y="84"/>
			<point x="323" y="27" type="curve" smooth="yes"/>
			<point x="323" y="-21"/>
			<point x="290" y="-62"/>
			<point x="217" y="-62" type="curve" smooth="yes"/>
			<point x="206" y="-62"/>
			<point x="196" y="-61"/>
			<point x="182" y="-58" type="curve"/>
			<point x="211" y="-76" type="line"/>
			<point x="178" y="-9" type="line" smooth="yes"/>
			<point x="160" y="27"/>
			<point x="142" y="44"/>
			<point x="113" y="44" type="curve" smooth="yes"/>
			<point x="92" y="44"/>
			<point x="76" y="35"/>
			<point x="66" y="9" type="curve"/>
			<point x="67" y="-48"/>
			<point x="135" y="-100"/>
		</contour>
	</outline>
</glyph>
<glyph name="ordfeminine" format="1">
	<unicode hex="00AA"/>
	<advance width="351"/>
	<outline>
		<contour>
			<point x="283" y="484" type="curve" smooth="yes"/>
			<point x="283" y="631" type="line" smooth="yes"/>
			<point x="283" y="716"/>
			<point x="249" y="750"/>
			<point x="175" y="750" type="curve" smooth="yes"/>
			<point x="99" y="750"/>
			<point x="48" y="714"/>
			<point x="37" y="663" type="curve"/>
			<point x="40" y="643"/>
			<point x="52" y="632"/>
			<point x="72" y="632" type="curve" smooth="yes"/>
			<point x="92" y="632"/>
			<point x="106" y="647"/>
			<point x="112" y="679" type="curve" smooth="yes"/>
			<point x="126" y="729" type="line"/>
			<point x="92" y="712" type="line"/>
			<point x="118" y="721"/>
			<point x="138" y="723"/>
			<point x="154" y="723" type="curve" smooth="yes"/>
			<point x="200" y="723"/>
			<point x="217" y="705"/>
			<point x="217" y="645" type="curve" smooth="yes"/>
			<point x="217" y="487" type="line" smooth="yes"/>
			<point x="218" y="446"/>
			<point x="240" y="419"/>
			<point x="283" y="419" type="curve" smooth="yes"/>
			<point x="310" y="419"/>
			<point x="329" y="429"/>
			<point x="344" y="462" type="curve"/>
			<point x="333" y="473" type="line"/>
			<point x="321" y="460"/>
			<point x="314" y="454"/>
			<point x="303" y="454" type="curve" smooth="yes"/>
			<point x="289" y="454"/>
			<point x="283" y="464"/>
		</contour>
		<contour>
			<point x="97" y="510" type="curve" smooth="yes"/>
			<point x="97" y="540"/>
			<point x="108" y="565"/>
			<point x="163" y="585" type="curve" smooth="yes"/>
			<point x="180" y="591"/>
			<point x="219" y="601"/>
			<point x="250" y="609" type="curve"/>
			<point x="250" y="630" type="line"/>
			<point x="217" y="622"/>
			<point x="173" y="611"/>
			<point x="144" y="602" type="curve" smooth="yes"/>
			<point x="50" y="572"/>
			<point x="28" y="542"/>
			<point x="28" y="500" type="curve" smooth="yes"/>
			<point x="28" y="447"/>
			<point x="68" y="417"/>
			<point x="118" y="417" type="curve" smooth="yes"/>
			<point x="161" y="417"/>
			<point x="185" y="437"/>
			<point x="222" y="473" type="curve" smooth="yes"/>
			<point x="244" y="499" type="line"/>
			<point x="235" y="508" type="line"/>
			<point x="220" y="495" type="line" smooth="yes"/>
			<point x="181" y="470"/>
			<point x="169" y="462"/>
			<point x="148" y="462" type="curve" smooth="yes"/>
			<point x="121" y="462"/>
			<point x="97" y="476"/>
		</contour>
	</outline>
</glyph>
<glyph name="registered" format="1">
	<unicode hex="00AE"/>
	<advance width="458"/>
	<outline>
		<contour>
			<point x="60" y="516" type="curve" smooth="yes"/>
			<point x="60" y="621"/>
			<point x="136" y="687"/>
			<point x="229" y="687" type="curve" smooth="yes"/>
			<point x="322" y="687"/>
			<point x="398" y="621"/>
			<point x="398" y="516" type="curve" smooth="yes"/>
			<point x="398" y="411"/>
			<point x="322" y="343"/>
			<point x="229" y="343" type="curve" smooth="yes"/>
			<point x="136" y="343"/>
			<point x="60" y="411"/>
		</contour>
		<contour>
			<point x="166" y="419" type="line"/>
			<point x="208" y="419" type="line"/>
			<point x="208" y="620" type="line"/>
			<point x="166" y="620" type="line"/>
		</contour>
		<contour>
			<point x="181" y="436" type="line"/>
			<point x="137" y="431" type="line"/>
			<point x="137" y="419" type="line"/>
			<point x="237" y="419" type="line"/>
			<point x="237" y="431" type="line"/>
			<point x="189" y="436" type="line"/>
		</contour>
		<contour>
			<point x="181" y="602" type="line"/>
			<point x="187" y="602" type="line"/>
			<point x="187" y="620" type="line"/>
			<point x="137" y="620" type="line"/>
			<point x="137" y="607" type="line"/>
		</contour>
		<contour>
			<point x="30" y="516" type="curve" smooth="yes"/>
			<point x="30" y="393"/>
			<point x="119" y="318"/>
			<point x="229" y="318" type="curve" smooth="yes"/>
			<point x="337" y="318"/>
			<point x="428" y="393"/>
			<point x="428" y="516" type="curve" smooth="yes"/>
			<point x="428" y="639"/>
			<point x="335" y="712"/>
			<point x="229" y="712" type="curve" smooth="yes"/>
			<point x="123" y="712"/>
			<point x="30" y="639"/>
		</contour>
		<contour>
			<point x="336" y="431" type="line"/>
			<point x="289" y="436" type="line"/>
			<point x="314" y="426" type="line"/>
			<point x="303" y="478" type="line" smooth="yes"/>
			<point x="297" y="506"/>
			<point x="268" y="519"/>
			<point x="227" y="519" type="curve"/>
			<point x="211" y="512" type="line"/>
			<point x="284" y="512"/>
			<point x="307" y="542"/>
			<point x="307" y="569" type="curve" smooth="yes"/>
			<point x="307" y="599"/>
			<point x="279" y="620"/>
			<point x="231" y="620" type="curve" smooth="yes"/>
			<point x="187" y="620" type="line"/>
			<point x="187" y="606" type="line"/>
			<point x="222" y="606" type="line" smooth="yes"/>
			<point x="249" y="606"/>
			<point x="262" y="592"/>
			<point x="262" y="566" type="curve" smooth="yes"/>
			<point x="262" y="543"/>
			<point x="251" y="524"/>
			<point x="222" y="524" type="curve" smooth="yes"/>
			<point x="187" y="524" type="line"/>
			<point x="187" y="510" type="line"/>
			<point x="223" y="510" type="line" smooth="yes"/>
			<point x="242" y="510"/>
			<point x="255" y="502"/>
			<point x="258" y="484" type="curve" smooth="yes"/>
			<point x="267" y="441" type="line" smooth="yes"/>
			<point x="271" y="420"/>
			<point x="281" y="415"/>
			<point x="306" y="415" type="curve" smooth="yes"/>
			<point x="317" y="415"/>
			<point x="323" y="416"/>
			<point x="336" y="419" type="curve"/>
		</contour>
	</outline>
</glyph>
<glyph name="plusminus" format="1">
	<unicode hex="00B1"/>
	<advance width="530"/>
	<outline>
		<contour>
			<point x="242" y="93" type="line"/>
			<point x="288" y="93" type="line"/>
			<point x="288" y="558" type="line"/>
			<point x="242" y="558" type="line"/>
		</contour>
		<contour>
			<point x="501" y="309" type="line"/>
			<point x="501" y="351" type="line"/>
			<point x="29" y="351" type="line"/>
			<point x="29" y="309" type="line"/>
		</contour>
		<contour>
			<point x="501" y="0" type="line"/>
			<point x="501" y="41" type="line"/>
			<point x="29" y="41" type="line"/>
			<point x="29" y="0" type="line"/>
		</contour>
	</outline>
</glyph>
<glyph name="two.sups" format="1">
	<unicode hex="00B2"/>
	<advance width="370"/>
	<outline>
		<contour>
			<point x="56" y="426" type="line"/>
			<point x="323" y="426" type="line"/>
			<point x="323" y="485" type="line"/>
			<point x="97" y="485" type="line"/>
			<point x="78" y="447" type="line"/>
			<point x="177" y="542" type="line" smooth="yes"/>
			<point x="267" y="634"/>
			<point x="308" y="674"/>
			<point x="308" y="729" type="curve" smooth="yes"/>
			<point x="308" y="782"/>
			<point x="274" y="832"/>
			<point x="185" y="832" type="curve" smooth="yes"/>
			<point x="119" y="832"/>
			<point x="56" y="799"/>
			<point x="50" y="734" type="curve"/>
			<point x="59" y="721"/>
			<point x="70" y="713"/>
			<point x="86" y="713" type="curve" smooth="yes"/>
			<point x="104" y="713"/>
			<point x="116" y="724"/>
			<point x="125" y="758" type="curve" smooth="yes"/>
			<point x="139" y="813" type="line"/>
			<point x="107" y="790" type="line"/>
			<point x="127" y="798"/>
			<point x="147" y="802"/>
			<point x="162" y="802" type="curve" smooth="yes"/>
			<point x="210" y="802"/>
			<point x="239" y="773"/>
			<point x="239" y="721" type="curve" smooth="yes"/>
			<point x="239" y="672"/>
			<point x="210" y="621"/>
			<point x="151" y="562" type="curve" smooth="yes"/>
			<point x="56" y="471" type="line"/>
		</contour>
	</outline>
</glyph>
<glyph name="acute" format="1">
	<unicode hex="00B4"/>
	<advance width="400"/>
	<outline>
		<contour>
			<point x="135" y="573" type="curve"/>
			<point x="153" y="560" type="line"/>
			<point x="195" y="597"/>
			<point x="236" y="632"/>
			<point x="279" y="667" type="curve" smooth="yes"/>
			<point x="308" y="691"/>
			<point x="311" y="707"/>
			<point x="311" y="720" type="curve" smooth="yes"/>
			<point x="311" y="745"/>
			<point x="293" y="757"/>
			<point x="274" y="757" type="curve" smooth="yes"/>
			<point x="257" y="757"/>
			<point x="239" y="747"/>
			<point x="221" y="717" type="curve" smooth="yes"/>
			<point x="192" y="669"/>
			<point x="164" y="621"/>
		</contour>
	</outline>
</glyph>
<glyph name="mu.math" format="1">
	<unicode hex="00B5"/>
	<advance width="568"/>
	<outline>
		<contour>
			<point x="80" y="-186" type="line"/>
			<point x="88" y="-190" type="line"/>
			<point x="171" y="-172" type="line"/>
			<point x="142" y="90" type="line"/>
			<point x="159" y="104" type="line"/>
			<point x="159" y="191"/>
			<point x="167" y="280"/>
			<point x="178" y="477" type="curve"/>
			<point x="172" y="486" type="line"/>
			<point x="86" y="467" type="line"/>
			<point x="101" y="101" type="line"/>
		</contour>
		<contour>
			<point x="263" y="-13" type="curve" smooth="yes"/>
			<point x="329" y="-13"/>
			<point x="377" y="47"/>
			<point x="410" y="164" type="curve"/>
			<point x="396" y="182" type="line"/>
			<point x="359" y="83"/>
			<point x="323" y="62"/>
			<point x="269" y="62" type="curve" smooth="yes"/>
			<point x="230" y="62"/>
			<point x="189" y="79"/>
			<point x="156" y="152" type="curve"/>
			<point x="133" y="93" type="line"/>
			<point x="155" y="28"/>
			<point x="213" y="-13"/>
		</contour>
		<contour>
			<point x="473" y="-13" type="curve" smooth="yes"/>
			<point x="510" y="-13"/>
			<point x="538" y="10"/>
			<point x="554" y="39" type="curve"/>
			<point x="547" y="57" type="line"/>
			<point x="534" y="52"/>
			<point x="518" y="48"/>
			<point x="505" y="48" type="curve" smooth="yes"/>
			<point x="472" y="48"/>
			<point x="460" y="65"/>
			<point x="458" y="128" type="curve" smooth="yes"/>
			<point x="456" y="198"/>
			<point x="464" y="278"/>
			<point x="480" y="477" type="curve"/>
			<point x="473" y="486" type="line"/>
			<point x="388" y="467" type="line"/>
			<point x="395" y="128" type="line" smooth="yes"/>
			<point x="397" y="41"/>
			<point x="412" y="-13"/>
		</contour>
	</outline>
</glyph>
<glyph name="cedilla" format="1">
	<unicode hex="00B8"/>
	<advance width="400"/>
	<outline>
		<contour>
			<point x="149" y="-86" type="line"/>
			<point x="199" y="-94"/>
			<point x="222" y="-108"/>
			<point x="222" y="-139" type="curve" smooth="yes"/>
			<point x="222" y="-171"/>
			<point x="202" y="-190"/>
			<point x="164" y="-190" type="curve" smooth="yes"/>
			<point x="145" y="-190"/>
			<point x="132" y="-190"/>
			<point x="116" y="-188" type="curve"/>
			<point x="110" y="-211" type="line"/>
			<point x="123" y="-215"/>
			<point x="144" y="-220"/>
			<point x="172" y="-220" type="curve" smooth="yes"/>
			<point x="242" y="-220"/>
			<point x="279" y="-185"/>
			<point x="279" y="-142" type="curve" smooth="yes"/>
			<point x="279" y="-89"/>
			<point x="224" y="-62"/>
			<point x="165" y="-63" type="curve"/>
			<point x="179" y="-77" type="line"/>
			<point x="189" y="3" type="line"/>
			<point x="162" y="3" type="line"/>
		</contour>
	</outline>
</glyph>
<glyph name="ordmasculine" format="1">
	<unicode hex="00BA"/>
	<advance width="377"/>
	<outline>
		<contour>
			<point x="189" y="719" type="curve" smooth="yes"/>
			<point x="247" y="719"/>
			<point x="280" y="675"/>
			<point x="280" y="583" type="curve" smooth="yes"/>
			<point x="280" y="489"/>
			<point x="247" y="447"/>
			<point x="189" y="447" type="curve" smooth="yes"/>
			<point x="130" y="447"/>
			<point x="97" y="489"/>
			<point x="97" y="583" type="curve" smooth="yes"/>
			<point x="97" y="675"/>
			<point x="130" y="719"/>
		</contour>
		<contour>
			<point x="189" y="750" type="curve" smooth="yes"/>
			<point x="107" y="750"/>
			<point x="28" y="687"/>
			<point x="28" y="583" type="curve" smooth="yes"/>
			<point x="28" y="478"/>
			<point x="106" y="416"/>
			<point x="189" y="416" type="curve" smooth="yes"/>
			<point x="271" y="416"/>
			<point x="348" y="478"/>
			<point x="348" y="583" type="curve" smooth="yes"/>
			<point x="348" y="687"/>
			<point x="269" y="750"/>
		</contour>
	</outline>
</glyph>
<glyph name="Agrave" format="1">
	<unicode hex="00C0"/>
	<advance width="663"/>
	<outline>
		<contour>
			<point x="404" y="742" type="line"/>
			<point x="375" y="774"/>
			<point x="345" y="806"/>
			<point x="314" y="838" type="curve" smooth="yes"/>
			<point x="286" y="867"/>
			<point x="269" y="877"/>
			<point x="252" y="877" type="curve" smooth="yes"/>
			<point x="232" y="877"/>
			<point x="215" y="864"/>
			<point x="215" y="844" type="curve" smooth="yes"/>
			<point x="215" y="825"/>
			<point x="230" y="808"/>
			<point x="267" y="789" type="curve" smooth="yes"/>
			<point x="307" y="768"/>
			<point x="349" y="746"/>
			<point x="392" y="726" type="curve"/>
		</contour>
		<component base="A"/>
	</outline>
</glyph>
<glyph name="Acircumflex" format="1">
	<unicode hex="00C2"/>
	<advance width="663"/>
	<outline>
		<contour>
			<point x="347" y="835" type="line"/>
			<point x="315" y="835" type="line"/>
			<point x="188" y="719" type="line"/>
			<point x="201" y="701" type="line"/>
			<point x="373" y="795" type="line"/>
			<point x="289" y="795" type="line"/>
			<point x="461" y="701" type="line"/>
			<point x="474" y="719" type="line"/>
		</contour>
		<component base="A"/>
	</outline>
</glyph>
<glyph name="Atilde" format="1">
	<unicode hex="00C3"/>
	<advance width="663"/>
	<outline>
		<contour>
			<point x="152" y="731" type="curve"/>
			<point x="173" y="725" type="line"/>
			<point x="190" y="776"/>
			<point x="211" y="808"/>
			<point x="245" y="808" type="curve" smooth="yes"/>
			<point x="276" y="808"/>
			<point x="299" y="778"/>
			<point x="325" y="756" type="curve" smooth="yes"/>
			<point x="347" y="738"/>
			<point x="367" y="722"/>
			<point x="405" y="722" type="curve" smooth="yes"/>
			<point x="469" y="722"/>
			<point x="496" y="772"/>
			<point x="510" y="852" type="curve"/>
			<point x="488" y="858" type="line"/>
			<point x="472" y="807"/>
			<point x="452" y="776"/>
			<point x="417" y="776" type="curve" smooth="yes"/>
			<point x="386" y="776"/>
			<point x="363" y="805"/>
			<point x="337" y="827" type="curve" smooth="yes"/>
			<point x="314" y="845"/>
			<point x="293" y="861"/>
			<point x="256" y="861" type="curve" smooth="yes"/>
			<point x="194" y="861"/>
			<point x="164" y="809"/>
		</contour>
		<component base="A"/>
	</outline>
</glyph>
<glyph name="Igrave" format="1">
	<unicode hex="00CC"/>
	<advance width="370"/>
	<outline>
		<contour>
			<point x="258" y="742" type="line"/>
			<point x="229" y="774"/>
			<point x="199" y="806"/>
			<point x="168" y="838" type="curve" smooth="yes"/>
			<point x="140" y="867"/>
			<point x="123" y="877"/>
			<point x="106" y="877" type="curve" smooth="yes"/>
			<point x="86" y="877"/>
			<point x="69" y="864"/>
			<point x="69" y="844" type="curve" smooth="yes"/>
			<point x="69" y="825"/>
			<point x="84" y="808"/>
			<point x="121" y="789" type="curve" smooth="yes"/>
			<point x="161" y="768"/>
			<point x="203" y="746"/>
			<point x="246" y="726" type="curve"/>
		</contour>
		<component base="I"/>
	</outline>
</glyph>
<glyph name="Eth" format="1">
	<unicode hex="00D0"/>
	<advance width="710"/>
	<outline>
		<contour>
			<point x="385" y="324" type="line"/>
			<point x="385" y="362" type="line"/>
			<point x="45" y="362" type="line"/>
			<point x="45" y="324" type="line"/>
		</contour>
		<component base="D"/>
	</outline>
</glyph>
<glyph name="Ograve" format="1">
	<unicode hex="00D2"/>
	<advance width="707"/>
	<outline>
		<contour>
			<point x="426" y="742" type="line"/>
			<point x="397" y="774"/>
			<point x="367" y="806"/>
			<point x="336" y="838" type="curve" smooth="yes"/>
			<point x="308" y="867"/>
			<point x="291" y="877"/>
			<point x="274" y="877" type="curve" smooth="yes"/>
			<point x="254" y="877"/>
			<point x="237" y="864"/>
			<point x="237" y="844" type="curve" smooth="yes"/>
			<point x="237" y="825"/>
			<point x="252" y="808"/>
			<point x="289" y="789" type="curve" smooth="yes"/>
			<point x="329" y="768"/>
			<point x="371" y="746"/>
			<point x="414" y="726" type="curve"/>
		</contour>
		<component base="O"/>
	</outline>
</glyph>
<glyph name="Ocircumflex" format="1">
	<unicode hex="00D4"/>
	<advance width="707"/>
	<outline>
		<contour>
			<point x="370" y="855" type="line"/>
			<point x="338" y="855" type="line"/>
			<point x="211" y="739" type="line"/>
			<point x="224" y="721" type="line"/>
			<point x="396" y="815" type="line"/>
			<point x="312" y="815" type="line"/>
			<point x="484" y="721" type="line"/>
			<point x="497" y="739" type="line"/>
		</contour>
		<component base="O"/>
	</outline>
</glyph>
<glyph name="multiply" format="1">
	<unicode hex="00D7"/>
	<advance width="530"/>
	<outline>
		<contour>
			<point x="458" y="108" type="line"/>
			<point x="487" y="137" type="line"/>
			<point x="72" y="552" type="line"/>
			<point x="43" y="523" type="line"/>
		</contour>
		<contour>
			<point x="487" y="523" type="line"/>
			<point x="458" y="552" type="line"/>
			<point x="43" y="137" type="line"/>
			<point x="72" y="108" type="line"/>
		</contour>
	</outline>
</glyph>
<glyph name="Uacute" format="1">
	<unicode hex="00DA"/>
	<advance width="727"/>
	<outline>
		<contour>
			<point x="320" y="732" type="curve"/>
			<point x="333" y="715" type="line"/>
			<point x="374" y="734"/>
			<point x="417" y="757"/>
			<point x="458" y="779" type="curve" smooth="yes"/>
			<point x="495" y="799"/>
			<point x="509" y="816"/>
			<point x="509" y="834" type="curve" smooth="yes"/>
			<point x="509" y="854"/>
			<point x="492" y="867"/>
			<point x="472" y="867" type="curve" smooth="yes"/>
			<point x="455" y="867"/>
			<point x="437" y="856"/>
			<point x="410" y="828" type="curve" smooth="yes"/>
			<point x="380" y="797"/>
			<point x="350" y="765"/>
		</contour>
		<component base="U"/>
	</outline>
</glyph>
<glyph name="Udieresis" format="1">
	<unicode hex="00DC"/>
	<advance width="727"/>
	<outline>
		<contour>
			<point x="285" y="746" type="curve" smooth="yes"/>
			<point x="316" y="746"/>
			<point x="341" y="769"/>
			<point x="341" y="800" type="curve" smooth="yes"/>
			<point x="341" y="831"/>
			<point x="316" y="854"/>
			<point x="285" y="854" type="curve" smooth="yes"/>
			<point x="254" y="854"/>
			<point x="228" y="831"/>
			<point x="228" y="800" type="curve" smooth="yes"/>
			<point x="228" y="769"/>
			<point x="254" y="746"/>
		</contour>
		<contour>
			<point x="506" y="746" type="curve" smooth="yes"/>
			<point x="537" y="746"/>
			<point x="563" y="769"/>
			<point x="563" y="800" type="curve" smooth="yes"/>
			<point x="563" y="831"/>
			<point x="537" y="854"/>
			<point x="506" y="854" type="curve" smooth="yes"/>
			<point x="475" y="854"/>
			<point x="450" y="831"/>
			<point x="450" y="800" type="curve" smooth="yes"/>
			<point x="450" y="769"/>
			<point x="475" y="746"/>
		</contour>
		<component base="U"/>
	</outline>
</glyph>
<glyph name="Yacute" format="1">
	<unicode hex="00DD"/>
	<advance width="633"/>
	<outline>
		<contour>
			<point x="298" y="732" type="curve"/>
			<point x="311" y="715" type="line"/>
			<point x="352" y="734"/>
			<point x="395" y="757"/>
			<point x="436" y="779" type="curve" smooth="yes"/>
			<point x="473" y="799"/>
			<point x="487" y="816"/>
			<point x="487" y="834" type="curve" smooth="yes"/>
			<point x="487" y="854"/>
			<point x="470" y="867"/>
			<point x="450" y="867" type="curve" smooth="yes"/>
			<point x="433" y="867"/>
			<point x="415" y="856"/>
			<point x="388" y="828" type="curve" smooth="yes"/>
			<point x="358" y="797"/>
			<point x="328" y="765"/>
		</contour>
		<component base="Y"/>
	</outline>
</glyph>
<glyph name="Thorn" format="1">
	<unicode hex="00DE"/>
	<advance width="610"/>
	<outline>
		<contour>
			<point x="175" y="624" type="line"/>
			<point x="200" y="624" type="line"/>
			<point x="330" y="639" type="line"/>
			<point x="330" y="670" type="line"/>
			<point x="45" y="670" type="line"/>
			<point x="45" y="639" type="line"/>
		</contour>
		<contour>
			<point x="175" y="46" type="line"/>
			<point x="45" y="31" type="line"/>
			<point x="45" y="0" type="line"/>
			<point x="330" y="0" type="line"/>
			<point x="330" y="31" type="line"/>
			<point x="200" y="46" type="line"/>
		</contour>
		<contour>
			<point x="140" y="310" type="line" smooth="yes"/>
			<point x="140" y="205"/>
			<point x="140" y="101"/>
			<point x="137" y="0" type="curve"/>
			<point x="233" y="0" type="line"/>
			<point x="231" y="101"/>
			<point x="230" y="211"/>
			<point x="230" y="310" type="curve" smooth="yes"/>
			<point x="230" y="362" type="line" smooth="yes"/>
			<point x="230" y="465"/>
			<point x="231" y="568"/>
			<point x="233" y="670" type="curve"/>
			<point x="137" y="670" type="line"/>
			<point x="140" y="567"/>
			<point x="140" y="463"/>
			<point x="140" y="360" type="curve" smooth="yes"/>
		</contour>
		<contour>
			<point x="585" y="346" type="curve" smooth="yes"/>
			<point x="585" y="459"/>
			<point x="500" y="535"/>
			<point x="327" y="535" type="curve" smooth="yes"/>
			<point x="185" y="535" type="line"/>
			<point x="185" y="498" type="line"/>
			<point x="315" y="498" type="line" smooth="yes"/>
			<point x="436" y="498"/>
			<point x="490" y="445"/>
			<point x="490" y="349" type="curve" smooth="yes"/>
			<point x="490" y="256"/>
			<point x="436" y="192"/>
			<point x="318" y="192" type="curve" smooth="yes"/>
			<point x="185" y="192" type="line"/>
			<point x="185" y="155" type="line"/>
			<point x="301" y="155" type="line" smooth="yes"/>
			<point x="530" y="155"/>
			<point x="585" y="252"/>
		</contour>
	</outline>
</glyph>
<glyph name="aacute" format="1">
	<unicode hex="00E1"/>
	<advance width="508"/>
	<outline>
		<contour>
			<point x="213" y="573" type="curve"/>
			<point x="231" y="560" type="line"/>
			<point x="273" y="597"/>
			<point x="314" y="632"/>
			<point x="357" y="667" type="curve" smooth="yes"/>
			<point x="386" y="691"/>
			<point x="389" y="707"/>
			<point x="389" y="720" type="curve" smooth="yes"/>
			<point x="389" y="745"/>
			<point x="371" y="757"/>
			<point x="352" y="757" type="curve" smooth="yes"/>
			<point x="335" y="757"/>
			<point x="317" y="747"/>
			<point x="299" y="717" type="curve" smooth="yes"/>
			<point x="270" y="669"/>
			<point x="242" y="621"/>
		</contour>
		<component base="a"/>
	</outline>
</glyph>
<glyph name="aring" format="1">
	<unicode hex="00E5"/>
	<advance width="508"/>
	<outline>
		<contour>
			<point x="256" y="584" type="curve" smooth="yes"/>
			<point x="215" y="584"/>
			<point x="193" y="618"/>
			<point x="193" y="651" type="curve" smooth="yes"/>
			<point x="193" y="685"/>
			<point x="216" y="717"/>
			<point x="256" y="717" type="curve" smooth="yes"/>
			<point x="297" y="717"/>
			<point x="319" y="685"/>
			<point x="319" y="651" type="curve" smooth="yes"/>
			<point x="319" y="618"/>
			<point x="296" y="584"/>
		</contour>
		<contour>
			<point x="256" y="550" type="curve" smooth="yes"/>
			<point x="309" y="550"/>
			<point x="360" y="588"/>
			<point x="360" y="651" type="curve" smooth="yes"/>
			<point x="360" y="716"/>
			<point x="309" y="751"/>
			<point x="256" y="751" type="curve" smooth="yes"/>
			<point x="203" y="751"/>
			<point x="152" y="713"/>
			<point x="152" y="651" type="curve" smooth="yes"/>
			<point x="152" y="586"/>
			<point x="203" y="550"/>
		</contour>
		<component base="a"/>
	</outline>
</glyph>
<glyph name="ccedilla" format="1">
	<unicode hex="00E7"/>
	<advance width="486"/>
	<outline>
		<contour>
			<point x="240" y="-86" type="line"/>
			<point x="290" y="-94"/>
			<point x="313" y="-108"/>
			<point x="313" y="-139" type="curve" smooth="yes"/>
			<point x="313" y="-171"/>
			<point x="293" y="-190"/>
			<point x="255" y="-190" type="curve" smooth="yes"/>
			<point x="236" y="-190"/>
			<point x="223" y="-190"/>
			<point x="207" y="-188" type="curve"/>
			<point x="201" y="-211" type="line"/>
			<point x="214" y="-215"/>
			<point x="235" y="-220"/>
			<point x="263" y="-220" type="curve" smooth="yes"/>
			<point x="333" y="-220"/>
			<point x="370" y="-185"/>
			<point x="370" y="-142" type="curve" smooth="yes"/>
			<point x="370" y="-89"/>
			<point x="315" y="-62"/>
			<point x="256" y="-63" type="curve"/>
			<point x="270" y="-77" type="line"/>
			<point x="280" y="3" type="line"/>
			<point x="253" y="3" type="line"/>
		</contour>
		<component base="c"/>
	</outline>
</glyph>
<glyph name="egrave" format="1">
	<unicode hex="00E8"/>
	<advance width="509"/>
	<outline>
		<contour>
			<point x="318" y="573" type="line"/>
			<point x="290" y="620"/>
			<point x="262" y="668"/>
			<point x="234" y="717" type="curve" smooth="yes"/>
			<point x="217" y="747"/>
			<point x="196" y="757"/>
			<point x="180" y="757" type="curve" smooth="yes"/>
			<point x="161" y="757"/>
			<point x="143" y="745"/>
			<point x="143" y="720" type="curve" smooth="yes"/>
			<point x="143" y="707"/>
			<point x="148" y="691"/>
			<point x="176" y="667" type="curve" smooth="yes"/>
			<point x="218" y="632"/>
			<point x="258" y="597"/>
			<point x="301" y="560" type="curve"/>
		</contour>
		<component base="e"/>
	</outline>
</glyph>
<glyph name="ecircumflex" format="1">
	<unicode hex="00EA"/>
	<advance width="509"/>
	<outline>
		<contour>
			<point x="398" y="549" type="line"/>
			<point x="415" y="564" type="line"/>
			<point x="286" y="743" type="line"/>
			<point x="254" y="743" type="line"/>
			<point x="125" y="564" type="line"/>
			<point x="142" y="549" type="line"/>
			<point x="312" y="699" type="line"/>
			<point x="228" y="699" type="line"/>
		</contour>
		<component base="e"/>
	</outline>
</glyph>
<glyph name="edieresis" format="1">
	<unicode hex="00EB"/>
	<advance width="509"/>
	<outline>
		<contour>
			<point x="374" y="597" type="curve" smooth="yes"/>
			<point x="406" y="597"/>
			<point x="432" y="621"/>
			<point x="432" y="653" type="curve" smooth="yes"/>
			<point x="432" y="685"/>
			<point x="406" y="709"/>
			<point x="374" y="709" type="curve" smooth="yes"/>
			<point x="342" y="709"/>
			<point x="315" y="685"/>
			<point x="315" y="653" type="curve" smooth="yes"/>
			<point x="315" y="621"/>
			<point x="342" y="597"/>
		</contour>
		<contour>
			<point x="166" y="597" type="curve" smooth="yes"/>
			<point x="198" y="597"/>
			<point x="225" y="621"/>
			<point x="225" y="653" type="curve" smooth="yes"/>
			<point x="225" y="685"/>
			<point x="198" y="709"/>
			<point x="166" y="709" type="curve" smooth="yes"/>
			<point x="134" y="709"/>
			<point x="108" y="685"/>
			<point x="108" y="653" type="curve" smooth="yes"/>
			<point x="108" y="621"/>
			<point x="134" y="597"/>
		</contour>
		<component base="e"/>
	</outline>
</glyph>
<glyph name="igrave" format="1">
	<unicode hex="00EC"/>
	<advance width="297"/>
	<outline>
		<contour>
			<point x="205" y="573" type="line"/>
			<point x="177" y="620"/>
			<point x="149" y="668"/>
			<point x="121" y="717" type="curve" smooth="yes"/>
			<point x="104" y="747"/>
			<point x="83" y="757"/>
			<point x="67" y="757" type="curve" smooth="yes"/>
			<point x="48" y="757"/>
			<point x="30" y="745"/>
			<point x="30" y="720" type="curve" smooth="yes"/>
			<point x="30" y="707"/>
			<point x="35" y="691"/>
			<point x="63" y="667" type="curve" smooth="yes"/>
			<point x="105" y="632"/>
			<point x="145" y="597"/>
			<point x="188" y="560" type="curve"/>
		</contour>
		<component base="dotlessi"/>
	</outline>
</glyph>
<glyph name="eth" format="1">
	<unicode hex="00F0"/>
	<advance width="545"/>
	<outline>
		<contour>
			<point x="262" y="-13" type="curve" smooth="yes"/>
			<point x="410" y="-13"/>
			<point x="493" y="100"/>
			<point x="493" y="280" type="curve" smooth="yes"/>
			<point x="493" y="514"/>
			<point x="359" y="662"/>
			<point x="175" y="750" type="curve"/>
			<point x="159" y="726" type="line"/>
			<point x="307" y="627"/>
			<point x="383" y="533"/>
			<point x="411" y="372" type="curve"/>
			<point x="421" y="377" type="line"/>
			<point x="397" y="445"/>
			<point x="339" y="474"/>
			<point x="265" y="474" type="curve" smooth="yes"/>
			<point x="155" y="474"/>
			<point x="46" y="389"/>
			<point x="46" y="234" type="curve" smooth="yes"/>
			<point x="46" y="73"/>
			<point x="151" y="-13"/>
		</contour>
		<contour>
			<point x="271" y="25" type="curve" smooth="yes"/>
			<point x="186" y="25"/>
			<point x="136" y="96"/>
			<point x="136" y="229" type="curve" smooth="yes"/>
			<point x="136" y="362"/>
			<point x="182" y="436"/>
			<point x="271" y="436" type="curve" smooth="yes"/>
			<point x="355" y="436"/>
			<point x="407" y="372"/>
			<point x="407" y="233" type="curve" smooth="yes"/>
			<point x="407" y="101"/>
			<point x="363" y="25"/>
		</contour>
		<contour>
			<point x="157" y="529" type="line"/>
			<point x="490" y="701" type="line"/>
			<point x="476" y="729" type="line"/>
			<point x="143" y="557" type="line"/>
		</contour>
	</outline>
</glyph>
<glyph name="ntilde" format="1">
	<unicode hex="00F1"/>
	<advance width="605"/>
	<outline>
		<contour>
			<point x="141" y="583" type="curve"/>
			<point x="159" y="578" type="line"/>
			<point x="174" y="629"/>
			<point x="193" y="661"/>
			<point x="224" y="661" type="curve" smooth="yes"/>
			<point x="252" y="661"/>
			<point x="273" y="631"/>
			<point x="297" y="609" type="curve" smooth="yes"/>
			<point x="316" y="591"/>
			<point x="334" y="575"/>
			<point x="368" y="575" type="curve" smooth="yes"/>
			<point x="426" y="575"/>
			<point x="450" y="625"/>
			<point x="463" y="705" type="curve"/>
			<point x="444" y="711" type="line"/>
			<point x="430" y="660"/>
			<point x="411" y="628"/>
			<point x="380" y="628" type="curve" smooth="yes"/>
			<point x="352" y="628"/>
			<point x="331" y="658"/>
			<point x="307" y="680" type="curve" smooth="yes"/>
			<point x="287" y="698"/>
			<point x="268" y="714"/>
			<point x="235" y="714" type="curve" smooth="yes"/>
			<point x="179" y="714"/>
			<point x="152" y="662"/>
		</contour>
		<component base="n"/>
	</outline>
</glyph>
<glyph name="ograve" format="1">
	<unicode hex="00F2"/>
	<advance width="548"/>
	<outline>
		<contour>
			<point x="328" y="573" type="line"/>
			<point x="300" y="620"/>
			<point x="272" y="668"/>
			<point x="244" y="717" type="curve" smooth="yes"/>
			<point x="227" y="747"/>
			<point x="206" y="757"/>
			<point x="190" y="757" type="curve" smooth="yes"/>
			<point x="171" y="757"/>
			<point x="153" y="745"/>
			<point x="153" y="720" type="curve" smooth="yes"/>
			<point x="153" y="707"/>
			<point x="158" y="691"/>
			<point x="186" y="667" type="curve" smooth="yes"/>
			<point x="228" y="632"/>
			<point x="268" y="597"/>
			<point x="311" y="560" type="curve"/>
		</contour>
		<component base="o"/>
	</outline>
</glyph>
<glyph name="oacute" format="1">
	<unicode hex="00F3"/>
	<advance width="548"/>
	<outline>
		<contour>
			<point x="229" y="573" type="curve"/>
			<point x="247" y="560" type="line"/>
			<point x="289" y="597"/>
			<point x="330" y="632"/>
			<point x="373" y="667" type="curve" smooth="yes"/>
			<point x="402" y="691"/>
			<point x="405" y="707"/>
			<point x="405" y="720" type="curve" smooth="yes"/>
			<point x="405" y="745"/>
			<point x="387" y="757"/>
			<point x="368" y="757" type="curve" smooth="yes"/>
			<point x="351" y="757"/>
			<point x="333" y="747"/>
			<point x="315" y="717" type="curve" smooth="yes"/>
			<point x="286" y="669"/>
			<point x="258" y="621"/>
		</contour>
		<component base="o"/>
	</outline>
</glyph>
<glyph name="ocircumflex" format="1">
	<unicode hex="00F4"/>
	<advance width="548"/>
	<outline>
		<contour>
			<point x="402" y="549" type="line"/>
			<point x="419" y="564" type="line"/>
			<point x="290" y="743" type="line"/>
			<point x="258" y="743" type="line"/>
			<point x="129" y="564" type="line"/>
			<point x="146" y="549" type="line"/>
			<point x="316" y="699" type="line"/>
			<point x="232" y="699" type="line"/>
		</contour>
		<component base="o"/>
	</outline>
</glyph>
<glyph name="otilde" format="1">
	<unicode hex="00F5"/>
	<advance width="548"/>
	<outline>
		<contour>
			<point x="113" y="583" type="curve"/>
			<point x="131" y="578" type="line"/>
			<point x="146" y="629"/>
			<point x="165" y="661"/>
			<point x="196" y="661" type="curve" smooth="yes"/>
			<point x="224" y="661"/>
			<point x="245" y="631"/>
			<point x="269" y="609" type="curve" smooth="yes"/>
			<point x="288" y="591"/>
			<point x="306" y="575"/>
			<point x="340" y="575" type="curve" smooth="yes"/>
			<point x="398" y="575"/>
			<point x="422" y="625"/>
			<point x="435" y="705" type="curve"/>
			<point x="416" y="711" type="line"/>
			<point x="402" y="660"/>
			<point x="383" y="628"/>
			<point x="352" y="628" type="curve" smooth="yes"/>
			<point x="324" y="628"/>
			<point x="303" y="658"/>
			<point x="279" y="680" type="curve" smooth="yes"/>
			<point x="259" y="698"/>
			<point x="240" y="714"/>
			<point x="207" y="714" type="curve" smooth="yes"/>
			<point x="151" y="714"/>
			<point x="124" y="662"/>
		</contour>
		<component base="o"/>
	</outline>
</glyph>
<glyph name="ugrave" format="1">
	<unicode hex="00F9"/>
	<advance width="582"/>
	<outline>
		<contour>
			<point x="330" y="573" type="line"/>
			<point x="302" y="620"/>
			<point x="274" y="668"/>
			<point x="246" y="717" type="curve" smooth="yes"/>
			<point x="229" y="747"/>
			<point x="208" y="757"/>
			<point x="192" y="757" type="curve" smooth="yes"/>
			<point x="173" y="757"/>
			<point x="155" y="745"/>
			<point x="155" y="720" type="curve" smooth="yes"/>
			<point x="155" y="707"/>
			<point x="160" y="691"/>
			<point x="188" y="667" type="curve" smooth="yes"/>
			<point x="230" y="632"/>
			<point x="270" y="597"/>
			<point x="313" y="560" type="curve"/>
		</contour>
		<component base="u"/>
	</outline>
</glyph>
<glyph name="ucircumflex" format="1">
	<unicode hex="00FB"/>
	<advance width="582"/>
	<outline>
		<contour>
			<point x="409" y="549" type="line"/>
			<point x="426" y="564" type="line"/>
			<point x="297" y="743" type="line"/>
			<point x="265" y="743" type="line"/>
			<point x="136" y="564" type="line"/>
			<point x="153" y="549" type="line"/>
			<point x="323" y="699" type="line"/>
			<point x="239" y="699" type="line"/>
		</contour>
		<component base="u"/>
	</outline>
</glyph>
<glyph name="udieresis" format="1">
	<unicode hex="00FC"/>
	<advance width="582"/>
	<outline>
		<contour>
			<point x="395" y="597" type="curve" smooth="yes"/>
			<point x="427" y="597"/>
			<point x="453" y="621"/>
			<point x="453" y="653" type="curve" smooth="yes"/>
			<point x="453" y="685"/>
			<point x="427" y="709"/>
			<point x="395" y="709" type="curve" smooth="yes"/>
			<point x="363" y="709"/>
			<point x="336" y="685"/>
			<point x="336" y="653" type="curve" smooth="yes"/>
			<point x="336" y="621"/>
			<point x="363" y="597"/>
		</contour>
		<contour>
			<point x="187" y="597" type="curve" smooth="yes"/>
			<point x="219" y="597"/>
			<point x="246" y="621"/>
			<point x="246" y="653" type="curve" smooth="yes"/>
			<point x="246" y="685"/>
			<point x="219" y="709"/>
			<point x="187" y="709" type="curve" smooth="yes"/>
			<point x="155" y="709"/>
			<point x="129" y="685"/>
			<point x="129" y="653" type="curve" smooth="yes"/>
			<point x="129" y="621"/>
			<point x="155" y="597"/>
		</contour>
		<component base="u"/>
	</outline>
</glyph>
<glyph name="yacute" format="1">
	<unicode hex="00FD"/>
	<advance width="511"/>
	<outline>
		<contour>
			<point x="239" y="573" type="curve"/>
			<point x="257" y="560" type="line"/>
			<point x="299" y="597"/>
			<point x="340" y="632"/>
			<point x="383" y="667" type="curve" smooth="yes"/>
			<point x="412" y="691"/>
			<point x="415" y="707"/>
			<point x="415" y="720" type="curve" smooth="yes"/>
			<point x="415" y="745"/>
			<point x="397" y="757"/>
			<point x="378" y="757" type="curve" smooth="yes"/>
			<point x="361" y="757"/>
			<point x="343" y="747"/>
			<point x="325" y="717" type="curve" smooth="yes"/>
			<point x="296" y="669"/>
			<point x="268" y="621"/>
		</contour>
		<component base="y"/>
	</outline>
</glyph>
<glyph name="OE" format="1">
	<unicode hex="0152"/>
	<advance width="938"/>
	<outline>
		<contour>
			<point x="153" y="335" type="curve" smooth="yes"/>
			<point x="153" y="494"/>
			<point x="218" y="643"/>
			<point x="393" y="643" type="curve" smooth="yes"/>
			<point x="438" y="643"/>
			<point x="465" y="638"/>
			<point x="509" y="621" type="curve"/>
			<point x="509" y="670" type="line"/>
			<point x="455" y="680"/>
			<point x="412" y="685"/>
			<point x="381" y="685" type="curve" smooth="yes"/>
			<point x="199" y="685"/>
			<point x="48" y="557"/>
			<point x="48" y="335" type="curve" smooth="yes"/>
			<point x="48" y="113"/>
			<point x="199" y="-15"/>
			<point x="381" y="-15" type="curve" smooth="yes"/>
			<point x="412" y="-15"/>
			<point x="455" y="-10"/>
			<point x="509" y="0" type="curve"/>
			<point x="509" y="49" type="line"/>
			<point x="465" y="32"/>
			<point x="439" y="27"/>
			<point x="392" y="27" type="curve" smooth="yes"/>
			<point x="218" y="27"/>
			<point x="153" y="176"/>
		</contour>
		<contour>
			<point x="474" y="310" type="line" smooth="yes"/>
			<point x="474" y="205"/>
			<point x="474" y="101"/>
			<point x="471" y="0" type="curve"/>
			<point x="567" y="0" type="line"/>
			<point x="564" y="103"/>
			<point x="564" y="207"/>
			<point x="564" y="322" type="curve" smooth="yes"/>
			<point x="564" y="360" type="line" smooth="yes"/>
			<point x="564" y="465"/>
			<point x="564" y="569"/>
			<point x="567" y="670" type="curve"/>
			<point x="471" y="670" type="line"/>
			<point x="474" y="567"/>
			<point x="474" y="463"/>
			<point x="474" y="360" type="curve" smooth="yes"/>
		</contour>
		<contour>
			<point x="712" y="334" type="line"/>
			<point x="727" y="221" type="line"/>
			<point x="769" y="221" type="line"/>
			<point x="769" y="463" type="line"/>
			<point x="727" y="463" type="line"/>
			<point x="712" y="354" type="line"/>
		</contour>
		<contour>
			<point x="854" y="185" type="line"/>
			<point x="812" y="0" type="line"/>
			<point x="861" y="43" type="line"/>
			<point x="518" y="43" type="line"/>
			<point x="518" y="0" type="line"/>
			<point x="896" y="0" type="line"/>
			<point x="899" y="185" type="line"/>
		</contour>
		<contour>
			<point x="834" y="488" type="line"/>
			<point x="879" y="488" type="line"/>
			<point x="876" y="670" type="line"/>
			<point x="518" y="670" type="line"/>
			<point x="518" y="628" type="line"/>
			<point x="841" y="628" type="line"/>
			<point x="792" y="670" type="line"/>
		</contour>
		<contour>
			<point x="744" y="358" type="line"/>
			<point x="518" y="358" type="line"/>
			<point x="518" y="323" type="line"/>
			<point x="744" y="323" type="line"/>
		</contour>
	</outline>
</glyph>
<glyph name="oe" format="1">
	<unicode hex="0153"/>
	<advance width="869"/>
	<outline>
		<contour>
			<point x="274" y="449" type="curve" smooth="yes"/>
			<point x="362" y="449"/>
			<point x="412" y="373"/>
			<point x="412" y="234" type="curve" smooth="yes"/>
			<point x="412" y="95"/>
			<point x="362" y="25"/>
			<point x="274" y="25" type="curve" smooth="yes"/>
			<point x="186" y="25"/>
			<point x="136" y="98"/>
			<point x="136" y="237" type="curve" smooth="yes"/>
			<point x="136" y="376"/>
			<point x="186" y="449"/>
		</contour>
		<contour>
			<point x="475" y="128" type="curve"/>
			<point x="432" y="128" type="line"/>
			<point x="460" y="40"/>
			<point x="529" y="-13"/>
			<point x="626" y="-13" type="curve" smooth="yes"/>
			<point x="719" y="-13"/>
			<point x="784" y="31"/>
			<point x="819" y="108" type="curve"/>
			<point x="803" y="117" type="line"/>
			<point x="774" y="74"/>
			<point x="729" y="39"/>
			<point x="662" y="39" type="curve" smooth="yes"/>
			<point x="557" y="39"/>
			<point x="493" y="110"/>
			<point x="493" y="241" type="curve" smooth="yes"/>
			<point x="493" y="394"/>
			<point x="567" y="449"/>
			<point x="630" y="449" type="curve" smooth="yes"/>
			<point x="696" y="449"/>
			<point x="742" y="397"/>
			<point x="742" y="337" type="curve" smooth="yes"/>
			<point x="742" y="300"/>
			<point x="729" y="278"/>
			<point x="683" y="278" type="curve" smooth="yes"/>
			<point x="447" y="278" type="line"/>
			<point x="447" y="244" type="line"/>
			<point x="814" y="244" type="line"/>
			<point x="818" y="257"/>
			<point x="821" y="277"/>
			<point x="821" y="299" type="curve" smooth="yes"/>
			<point x="821" y="418"/>
			<point x="739" y="487"/>
			<point x="635" y="487" type="curve" smooth="yes"/>
			<point x="553" y="487"/>
			<point x="469" y="432"/>
			<point x="438" y="349" type="curve"/>
			<point x="475" y="349" type="line"/>
			<point x="443" y="436"/>
			<point x="353" y="487"/>
			<point x="274" y="487" type="curve" smooth="yes"/>
			<point x="160" y="487"/>
			<point x="46" y="403"/>
			<point x="46" y="237" type="curve" smooth="yes"/>
			<point x="46" y="71"/>
			<point x="160" y="-13"/>
			<point x="274" y="-13" type="curve" smooth="yes"/>
			<point x="353" y="-13"/>
			<point x="441" y="37"/>
		</contour>
	</outline>
</glyph>
<glyph name="scaron" format="1">
	<unicode hex="0161"/>
	<advance width="433"/>
	<outline>
		<contour>
			<point x="104" y="735" type="line"/>
			<point x="88" y="722" type="line"/>
			<point x="189" y="571" type="line"/>
			<point x="263" y="571" type="line"/>
			<point x="364" y="722" type="line"/>
			<point x="347" y="735" type="line"/>
			<point x="184" y="594" type="line"/>
			<point x="268" y="594" type="line"/>
		</contour>
		<component base="s"/>
	</outline>
</glyph>
<glyph name="caron" format="1">
	<unicode hex="02C7"/>
	<advance width="400"/>
	<outline>
		<contour>
			<point x="78" y="735" type="line"/>
			<point x="62" y="722" type="line"/>
			<point x="163" y="571" type="line"/>
			<point x="237" y="571" type="line"/>
			<point x="338" y="722" type="line"/>
			<point x="321" y="735" type="line"/>
			<point x="158" y="594" type="line"/>
			<point x="242" y="594" type="line"/>
		</contour>
	</outline>
</glyph>
<glyph name="macronmod" format="1">
	<unicode hex="02C9"/>
	<advance width="400"/>
	<outline>
		<contour>
			<point x="71" y="599" type="line"/>
			<point x="329" y="599" type="line"/>
			<point x="329" y="656" type="line"/>
			<point x="71" y="656" type="line"/>
		</contour>
	</outline>
</glyph>
<glyph name="ogonek" format="1">
	<unicode hex="02DB"/>
	<advance width="400"/>
	<outline>
		<contour>
			<point x="99" y="-132" type="curve" smooth="yes"/>
			<point x="99" y="-187"/>
			<point x="138" y="-220"/>
			<point x="192" y="-220" type="curve" smooth="yes"/>
			<point x="227" y="-220"/>
			<point x="270" y="-207"/>
			<point x="293" y="-174" type="curve"/>
			<point x="283" y="-160" type="line"/>
			<point x="263" y="-172"/>
			<point x="243" y="-175"/>
			<point x="230" y="-175" type="curve" smooth="yes"/>
			<point x="190" y="-175"/>
			<point x="159" y="-148"/>
			<point x="159" y="-100" type="curve" smooth="yes"/>
			<point x="159" y="-58"/>
			<point x="185" y="-15"/>
			<point x="225" y="13" type="curve"/>
			<point x="208" y="13" type="line"/>
			<point x="151" y="-16"/>
			<point x="99" y="-72"/>
		</contour>
	</outline>
</glyph>
<glyph name="tilde" format="1">
	<unicode hex="02DC"/>
	<advance width="400"/>
	<outline>
		<contour>
			<point x="41" y="583" type="curve"/>
			<point x="59" y="578" type="line"/>
			<point x="74" y="629"/>
			<point x="93" y="661"/>
			<point x="124" y="661" type="curve" smooth="yes"/>
			<point x="152" y="661"/>
			<point x="173" y="631"/>
			<point x="197" y="609" type="curve" smooth="yes"/>
			<point x="216" y="591"/>
			<point x="234" y="575"/>
			<point x="268" y="575" type="curve" smooth="yes"/>
			<point x="326" y="575"/>
			<point x="350" y="625"/>
			<point x="363" y="705" type="curve"/>
			<point x="344" y="711" type="line"/>
			<point x="330" y="660"/>
			<point x="311" y="628"/>
			<point x="280" y="628" type="curve" smooth="yes"/>
			<point x="252" y="628"/>
			<point x="231" y="658"/>
			<point x="207" y="680" type="curve" smooth="yes"/>
			<point x="187" y="698"/>
			<point x="168" y="714"/>
			<point x="135" y="714" type="curve" smooth="yes"/>
			<point x="79" y="714"/>
			<point x="52" y="662"/>
		</contour>
	</outline>
</glyph>
<glyph name="hungarumlaut" format="1">
	<unicode hex="02DD"/>
	<advance width="400"/>
	<outline>
		<contour>
			<point x="70" y="565" type="line"/>
			<point x="89" y="553" type="line"/>
			<point x="184" y="667" type="line" smooth="yes"/>
			<point x="204" y="691"/>
			<point x="207" y="708"/>
			<point x="207" y="718" type="curve" smooth="yes"/>
			<point x="207" y="740"/>
			<point x="191" y="754"/>
			<point x="172" y="754" type="curve" smooth="yes"/>
			<point x="155" y="754"/>
			<point x="132" y="743"/>
			<point x="120" y="708" type="curve" smooth="yes"/>
		</contour>
		<contour>
			<point x="210" y="564" type="line"/>
			<point x="229" y="553" type="line"/>
			<point x="326" y="665" type="line" smooth="yes"/>
			<point x="346" y="689"/>
			<point x="349" y="705"/>
			<point x="349" y="715" type="curve" smooth="yes"/>
			<point x="349" y="738"/>
			<point x="334" y="752"/>
			<point x="316" y="752" type="curve" smooth="yes"/>
			<point x="299" y="752"/>
			<point x="275" y="742"/>
			<point x="262" y="706" type="curve" smooth="yes"/>
		</contour>
	</outline>
</glyph>
<glyph name="pi" format="1">
	<unicode hex="03C0"/>
	<advance width="592"/>
	<outline>
		<contour>
			<point x="30" y="381" type="line"/>
			<point x="200" y="408" type="line"/>
			<point x="405" y="408" type="line"/>
			<point x="564" y="403" type="line"/>
			<point x="560" y="474" type="line"/>
			<point x="211" y="474" type="line" smooth="yes"/>
			<point x="114" y="474"/>
			<point x="74" y="459"/>
			<point x="23" y="411" type="curve"/>
		</contour>
		<contour>
			<point x="464" y="-13" type="curve" smooth="yes"/>
			<point x="496" y="-13"/>
			<point x="524" y="5"/>
			<point x="550" y="52" type="curve"/>
			<point x="544" y="68" type="line"/>
			<point x="527" y="62"/>
			<point x="510" y="57"/>
			<point x="495" y="57" type="curve" smooth="yes"/>
			<point x="459" y="57"/>
			<point x="437" y="78"/>
			<point x="435" y="145" type="curve" smooth="yes"/>
			<point x="428" y="442" type="line"/>
			<point x="381" y="442" type="line"/>
			<point x="376" y="354"/>
			<point x="368" y="208"/>
			<point x="368" y="107" type="curve" smooth="yes"/>
			<point x="368" y="25"/>
			<point x="399" y="-13"/>
		</contour>
		<contour>
			<point x="164" y="48" type="curve"/>
			<point x="179" y="70" type="line"/>
			<point x="185" y="92" type="line"/>
			<point x="143" y="91"/>
			<point x="101" y="88"/>
			<point x="68" y="81" type="curve"/>
			<point x="55" y="71"/>
			<point x="47" y="60"/>
			<point x="47" y="36" type="curve" smooth="yes"/>
			<point x="47" y="1"/>
			<point x="73" y="-13"/>
			<point x="103" y="-13" type="curve" smooth="yes"/>
			<point x="165" y="-13"/>
			<point x="197" y="24"/>
			<point x="206" y="111" type="curve" smooth="yes"/>
			<point x="216" y="213"/>
			<point x="216" y="332"/>
			<point x="217" y="442" type="curve"/>
			<point x="186" y="442" type="line"/>
			<point x="181" y="317"/>
			<point x="180" y="180"/>
		</contour>
	</outline>
</glyph>
<glyph name="fraction" format="1">
	<unicode hex="2044"/>
	<advance width="140"/>
	<outline>
		<contour>
			<point x="-153" y="-25" type="line"/>
			<point x="316" y="649" type="line"/>
			<point x="293" y="670" type="line"/>
			<point x="-176" y="-4" type="line"/>
		</contour>
	</outline>
</glyph>
<glyph name="Delta.math" format="1">
	<unicode hex="2206"/>
	<advance width="638"/>
	<outline>
		<contour>
			<point x="25" y="0" type="line"/>
			<point x="54" y="0" type="line"/>
			<point x="308" y="599" type="line"/>
			<point x="288" y="607" type="line"/>
			<point x="528" y="0" type="line"/>
			<point x="611" y="0" type="line"/>
			<point x="611" y="35" type="line"/>
			<point x="354" y="675" type="line"/>
			<point x="294" y="675" type="line"/>
			<point x="25" y="35" type="line"/>
		</contour>
		<contour>
			<point x="45" y="0" type="line"/>
			<point x="594" y="0" type="line"/>
			<point x="594" y="80" type="line"/>
			<point x="52" y="80" type="line"/>
		</contour>
	</outline>
</glyph>
<glyph name="summation" format="1">
	<unicode hex="2211"/>
	<advance width="560"/>
	<outline>
		<contour>
			<point x="469" y="488" type="line"/>
			<point x="518" y="488" type="line"/>
			<point x="510" y="670" type="line"/>
			<point x="68" y="670" type="line"/>
			<point x="68" y="628" type="line"/>
			<point x="475" y="628" type="line"/>
			<point x="420" y="670" type="line"/>
		</contour>
		<contour>
			<point x="20" y="-130" type="line"/>
			<point x="532" y="-130" type="line"/>
			<point x="540" y="82" type="line"/>
			<point x="491" y="82" type="line"/>
			<point x="442" y="-100" type="line"/>
			<point x="497" y="-50" type="line"/>
			<point x="62" y="-50" type="line"/>
			<point x="65" y="-76" type="line"/>
			<point x="352" y="288" type="line"/>
			<point x="109" y="670" type="line"/>
			<point x="26" y="670" type="line"/>
			<point x="26" y="632" type="line"/>
			<point x="295" y="218" type="line"/>
			<point x="310" y="305" type="line"/>
			<point x="20" y="-70" type="line"/>
		</contour>
	</outline>
</glyph>
<glyph name="infinity" format="1">
	<unicode hex="221E"/>
	<advance width="785"/>
	<outline>
		<contour>
			<point x="368" y="287" type="curve" smooth="yes"/>
			<point x="420" y="222"/>
			<point x="483" y="155"/>
			<point x="577" y="155" type="curve" smooth="yes"/>
			<point x="677" y="155"/>
			<point x="745" y="232"/>
			<point x="745" y="334" type="curve" smooth="yes"/>
			<point x="745" y="433"/>
			<point x="678" y="503"/>
			<point x="590" y="503" type="curve" smooth="yes"/>
			<point x="523" y="503"/>
			<point x="458" y="464"/>
			<point x="398" y="361" type="curve"/>
			<point x="410" y="333" type="line"/>
			<point x="465" y="406"/>
			<point x="504" y="441"/>
			<point x="585" y="441" type="curve" smooth="yes"/>
			<point x="651" y="441"/>
			<point x="704" y="393"/>
			<point x="704" y="329" type="curve" smooth="yes"/>
			<point x="704" y="273"/>
			<point x="665" y="231"/>
			<point x="599" y="231" type="curve" smooth="yes"/>
			<point x="533" y="231"/>
			<point x="475" y="296"/>
			<point x="417" y="371" type="curve" smooth="yes"/>
			<point x="365" y="436"/>
			<point x="302" y="503"/>
			<point x="208" y="503" type="curve" smooth="yes"/>
			<point x="108" y="503"/>
			<point x="40" y="426"/>
			<point x="40" y="324" type="curve" smooth="yes"/>
			<point x="40" y="225"/>
			<point x="107" y="155"/>
			<point x="195" y="155" type="curve" smooth="yes"/>
			<point x="262" y="155"/>
			<point x="327" y="194"/>
			<point x="387" y="297" type="curve"/>
			<point x="375" y="325" type="line"/>
			<point x="318" y="251"/>
			<point x="279" y="217"/>
			<point x="200" y="217" type="curve" smooth="yes"/>
			<point x="134" y="217"/>
			<point x="81" y="265"/>
			<point x="81" y="329" type="curve" smooth="yes"/>
			<point x="81" y="385"/>
			<point x="120" y="427"/>
			<point x="186" y="427" type="curve" smooth="yes"/>
			<point x="252" y="427"/>
			<point x="310" y="362"/>
		</contour>
	</outline>
</glyph>
<glyph name="f_l" format="1">
	<unicode hex="FB02"/>
	<advance width="610"/>
	<outline>
		<contour>
			<point x="116" y="0" type="curve"/>
			<point x="202" y="0" type="line"/>
			<point x="200" y="70"/>
			<point x="199" y="140"/>
			<point x="199" y="210" type="curve" smooth="yes"/>
			<point x="199" y="442" type="line"/>
			<point x="191" y="560"/>
			<point x="201" y="629"/>
			<point x="245" y="675" type="curve" smooth="yes"/>
			<point x="271" y="703"/>
			<point x="301" y="710"/>
			<point x="348" y="722" type="curve"/>
			<point x="287" y="723" type="line"/>
			<point x="316" y="700" type="line" smooth="yes"/>
			<point x="354" y="668"/>
			<point x="398" y="652"/>
			<point x="427" y="652" type="curve" smooth="yes"/>
			<point x="459" y="652"/>
			<point x="480" y="670"/>
			<point x="482" y="694" type="curve"/>
			<point x="471" y="731"/>
			<point x="415" y="750"/>
			<point x="356" y="750" type="curve" smooth="yes"/>
			<point x="310" y="750"/>
			<point x="255" y="739"/>
			<point x="204" y="696" type="curve" smooth="yes"/>
			<point x="145" y="645"/>
			<point x="129" y="580"/>
			<point x="119" y="465" type="curve"/>
			<point x="148" y="480" type="line"/>
			<point x="35" y="465" type="line"/>
			<point x="35" y="435" type="line"/>
			<point x="119" y="435" type="line"/>
			<point x="119" y="210" type="line" smooth="yes"/>
			<point x="119" y="140"/>
			<point x="118" y="70"/>
		</contour>
		<contour>
			<point x="36" y="0" type="line"/>
			<point x="292" y="0" type="line"/>
			<point x="292" y="27" type="line"/>
			<point x="169" y="44" type="line"/>
			<point x="149" y="44" type="line"/>
			<point x="36" y="27" type="line"/>
		</contour>
		<contour>
			<point x="159" y="435" type="line"/>
			<point x="337" y="435" type="line"/>
			<point x="337" y="474" type="line"/>
			<point x="159" y="474" type="line"/>
		</contour>
		<contour>
			<point x="339" y="0" type="line"/>
			<point x="587" y="0" type="line"/>
			<point x="587" y="27" type="line"/>
			<point x="472" y="44" type="line"/>
			<point x="452" y="44" type="line"/>
			<point x="339" y="27" type="line"/>
		</contour>
		<contour>
			<point x="419" y="0" type="curve"/>
			<point x="505" y="0" type="line"/>
			<point x="503" y="70"/>
			<point x="502" y="140"/>
			<point x="502" y="210" type="curve" smooth="yes"/>
			<point x="502" y="590" type="line"/>
			<point x="506" y="733" type="line"/>
			<point x="493" y="740" type="line"/>
			<point x="422" y="703" type="line"/>
			<point x="422" y="210" type="line" smooth="yes"/>
			<point x="422" y="140"/>
			<point x="421" y="70"/>
		</contour>
	</outline>
</glyph>
<glyph name="cent.nostroke" format="1">
	<advance width="497"/>
	<outline>
		<contour>
			<point x="284" y="554" type="line"/>
			<point x="284" y="660" type="line"/>
			<point x="252" y="660" type="line"/>
			<point x="252" y="554" type="line"/>
		</contour>
		<contour>
			<point x="284" y="-45" type="line"/>
			<point x="284" y="95" type="line"/>
			<point x="252" y="95" type="line"/>
			<point x="252" y="-45" type="line"/>
		</contour>
		<component base="c" yOffset="78"/>
	</outline>
</glyph>
<glyph name="eight.cap" format="1">
	<advance width="497"/>
	<outline>
		<contour>
			<point x="44" y="151" type="curve" smooth="yes"/>
			<point x="44" y="44"/>
			<point x="131" y="-13"/>
			<point x="250" y="-13" type="curve" smooth="yes"/>
			<point x="364" y="-13"/>
			<point x="452" y="60"/>
			<point x="452" y="166" type="curve" smooth="yes"/>
			<point x="452" y="260"/>
			<point x="398" y="315"/>
			<point x="285" y="367" type="curve" smooth="yes"/>
			<point x="168" y="420"/>
			<point x="142" y="480"/>
			<point x="142" y="538" type="curve" smooth="yes"/>
			<point x="142" y="604"/>
			<point x="192" y="645"/>
			<point x="249" y="645" type="curve" smooth="yes"/>
			<point x="313" y="645"/>
			<point x="349" y="591"/>
			<point x="349" y="529" type="curve" smooth="yes"/>
			<point x="349" y="454"/>
			<point x="325" y="407"/>
			<point x="254" y="356" type="curve"/>
			<point x="285" y="347" type="line"/>
			<point x="390" y="405"/>
			<point x="421" y="473"/>
			<point x="421" y="528" type="curve" smooth="yes"/>
			<point x="421" y="617"/>
			<point x="354" y="683"/>
			<point x="251" y="683" type="curve" smooth="yes"/>
			<point x="149" y="683"/>
			<point x="66" y="620"/>
			<point x="66" y="519" type="curve" smooth="yes"/>
			<point x="66" y="434"/>
			<point x="109" y="365"/>
			<point x="216" y="315" type="curve" smooth="yes"/>
			<point x="336" y="258"/>
			<point x="371" y="215"/>
			<point x="371" y="151" type="curve" smooth="yes"/>
			<point x="371" y="73"/>
			<point x="323" y="24"/>
			<point x="252" y="24" type="curve" smooth="yes"/>
			<point x="176" y="24"/>
			<point x="124" y="77"/>
			<point x="124" y="163" type="curve" smooth="yes"/>
			<point x="124" y="241"/>
			<point x="160" y="281"/>
			<point x="229" y="322" type="curve"/>
			<point x="194" y="332" type="line"/>
			<point x="95" y="285"/>
			<point x="44" y="231"/>
		</contour>
	</outline>
</glyph>
<glyph name="eight.lf" format="1">
	<advance width="508"/>
	<outline>
		<contour>
			<point x="50" y="147" type="curve" smooth="yes"/>
			<point x="50" y="42"/>
			<point x="137" y="-13"/>
			<point x="256" y="-13" type="curve" smooth="yes"/>
			<point x="371" y="-13"/>
			<point x="458" y="58"/>
			<point x="458" y="157" type="curve" smooth="yes"/>
			<point x="458" y="252"/>
			<point x="403" y="303"/>
			<point x="291" y="355" type="curve" smooth="yes"/>
			<point x="175" y="408"/>
			<point x="148" y="462"/>
			<point x="148" y="518" type="curve" smooth="yes"/>
			<point x="148" y="582"/>
			<point x="198" y="622"/>
			<point x="255" y="622" type="curve" smooth="yes"/>
			<point x="319" y="622"/>
			<point x="355" y="570"/>
			<point x="355" y="501" type="curve" smooth="yes"/>
			<point x="355" y="438"/>
			<point x="331" y="393"/>
			<point x="260" y="344" type="curve"/>
			<point x="291" y="336" type="line"/>
			<point x="395" y="392"/>
			<point x="427" y="457"/>
			<point x="427" y="507" type="curve" smooth="yes"/>
			<point x="427" y="596"/>
			<point x="360" y="660"/>
			<point x="257" y="660" type="curve" smooth="yes"/>
			<point x="155" y="660"/>
			<point x="72" y="598"/>
			<point x="72" y="494" type="curve" smooth="yes"/>
			<point x="72" y="417"/>
			<point x="116" y="353"/>
			<point x="222" y="303" type="curve" smooth="yes"/>
			<point x="340" y="247"/>
			<point x="377" y="209"/>
			<point x="377" y="148" type="curve" smooth="yes"/>
			<point x="377" y="74"/>
			<point x="329" y="24"/>
			<point x="258" y="24" type="curve" smooth="yes"/>
			<point x="182" y="24"/>
			<point x="130" y="76"/>
			<point x="130" y="161" type="curve" smooth="yes"/>
			<point x="130" y="235"/>
			<point x="167" y="271"/>
			<point x="235" y="311" type="curve"/>
			<point x="200" y="320" type="line"/>
			<point x="102" y="273"/>
			<point x="50" y="224"/>
		</contour>
	</outline>
</glyph>
<glyph name="f_t" format="1">
	<advance width="642"/>
	<outline>
		<contour>
			<point x="411" y="100" type="curve" smooth="yes"/>
			<point x="411" y="23"/>
			<point x="454" y="-13"/>
			<point x="523" y="-13" type="curve" smooth="yes"/>
			<point x="573" y="-13"/>
			<point x="614" y="6"/>
			<point x="639" y="38" type="curve"/>
			<point x="619" y="61" type="line"/>
			<point x="592" y="39"/>
			<point x="572" y="30"/>
			<point x="549" y="30" type="curve" smooth="yes"/>
			<point x="514" y="30"/>
			<point x="492" y="52"/>
			<point x="492" y="102" type="curve" smooth="yes"/>
			<point x="492" y="435" type="line"/>
			<point x="500" y="610" type="line"/>
			<point x="442" y="610" type="line"/>
			<point x="412" y="448" type="line"/>
			<point x="452" y="474" type="line"/>
			<point x="298" y="474" type="line"/>
			<point x="298" y="435" type="line"/>
			<point x="412" y="435" type="line"/>
			<point x="412" y="184" type="line" smooth="yes"/>
			<point x="412" y="145"/>
			<point x="411" y="124"/>
		</contour>
		<contour>
			<point x="452" y="435" type="line"/>
			<point x="630" y="435" type="line"/>
			<point x="630" y="474" type="line"/>
			<point x="452" y="474" type="line"/>
		</contour>
		<component base="f"/>
	</outline>
</glyph>
<glyph name="five.lf" format="1">
	<advance width="506"/>
	<outline>
		<contour>
			<point x="103" y="361" type="line"/>
			<point x="138" y="361" type="line"/>
			<point x="156" y="612" type="line"/>
			<point x="136" y="567" type="line"/>
			<point x="441" y="567" type="line"/>
			<point x="441" y="647" type="line"/>
			<point x="116" y="647" type="line"/>
			<point x="95" y="347" type="line"/>
			<point x="123" y="340" type="line"/>
			<point x="154" y="347"/>
			<point x="187" y="351"/>
			<point x="215" y="351" type="curve" smooth="yes"/>
			<point x="313" y="351"/>
			<point x="374" y="295"/>
			<point x="374" y="192" type="curve" smooth="yes"/>
			<point x="374" y="90"/>
			<point x="321" y="25"/>
			<point x="222" y="25" type="curve" smooth="yes"/>
			<point x="194" y="25"/>
			<point x="164" y="30"/>
			<point x="129" y="45" type="curve"/>
			<point x="169" y="19" type="line"/>
			<point x="149" y="93" type="line" smooth="yes"/>
			<point x="135" y="145"/>
			<point x="122" y="160"/>
			<point x="92" y="160" type="curve" smooth="yes"/>
			<point x="69" y="160"/>
			<point x="51" y="149"/>
			<point x="42" y="127" type="curve"/>
			<point x="64" y="33"/>
			<point x="127" y="-13"/>
			<point x="228" y="-13" type="curve" smooth="yes"/>
			<point x="367" y="-13"/>
			<point x="459" y="74"/>
			<point x="459" y="202" type="curve" smooth="yes"/>
			<point x="459" y="332"/>
			<point x="370" y="403"/>
			<point x="241" y="403" type="curve" smooth="yes"/>
			<point x="192" y="403"/>
			<point x="150" y="394"/>
			<point x="103" y="376" type="curve"/>
		</contour>
	</outline>
</glyph>
<glyph name="nine.cap" format="1">
	<advance width="497"/>
	<outline>
		<contour>
			<point x="114" y="483" type="curve" smooth="yes"/>
			<point x="114" y="591"/>
			<point x="170" y="645"/>
			<point x="236" y="645" type="curve" smooth="yes"/>
			<point x="310" y="645"/>
			<point x="361" y="573"/>
			<point x="361" y="407" type="curve" smooth="yes"/>
			<point x="361" y="210"/>
			<point x="286" y="77"/>
			<point x="78" y="9" type="curve"/>
			<point x="86" y="-18" type="line"/>
			<point x="347" y="43"/>
			<point x="447" y="220"/>
			<point x="447" y="418" type="curve" smooth="yes"/>
			<point x="447" y="579"/>
			<point x="370" y="683"/>
			<point x="241" y="683" type="curve" smooth="yes"/>
			<point x="115" y="683"/>
			<point x="29" y="597"/>
			<point x="29" y="470" type="curve" smooth="yes"/>
			<point x="29" y="345"/>
			<point x="117" y="269"/>
			<point x="223" y="269" type="curve" smooth="yes"/>
			<point x="305" y="269"/>
			<point x="369" y="308"/>
			<point x="402" y="387" type="curve"/>
			<point x="389" y="390" type="line"/>
			<point x="349" y="342"/>
			<point x="309" y="321"/>
			<point x="251" y="321" type="curve" smooth="yes"/>
			<point x="173" y="321"/>
			<point x="114" y="370"/>
		</contour>
	</outline>
</glyph>
<glyph name="nine.lf" format="1">
	<advance width="519"/>
	<outline>
		<contour>
			<point x="132" y="466" type="curve" smooth="yes"/>
			<point x="132" y="570"/>
			<point x="188" y="622"/>
			<point x="254" y="622" type="curve" smooth="yes"/>
			<point x="329" y="622"/>
			<point x="379" y="550"/>
			<point x="379" y="383" type="curve" smooth="yes"/>
			<point x="379" y="194"/>
			<point x="308" y="77"/>
			<point x="96" y="7" type="curve"/>
			<point x="104" y="-20" type="line"/>
			<point x="364" y="41"/>
			<point x="465" y="210"/>
			<point x="465" y="400" type="curve" smooth="yes"/>
			<point x="465" y="559"/>
			<point x="388" y="660"/>
			<point x="259" y="660" type="curve" smooth="yes"/>
			<point x="133" y="660"/>
			<point x="47" y="577"/>
			<point x="47" y="453" type="curve" smooth="yes"/>
			<point x="47" y="331"/>
			<point x="135" y="257"/>
			<point x="241" y="257" type="curve" smooth="yes"/>
			<point x="323" y="257"/>
			<point x="387" y="296"/>
			<point x="420" y="375" type="curve"/>
			<point x="407" y="378" type="line"/>
			<point x="367" y="331"/>
			<point x="327" y="310"/>
			<point x="269" y="310" type="curve" smooth="yes"/>
			<point x="191" y="310"/>
			<point x="132" y="356"/>
		</contour>
	</outline>
</glyph>
<glyph name="one.tosf" format="1">
	<advance width="497"/>
	<outline>
		<contour>
			<point x="74" y="481" type="line"/>
			<point x="74" y="452" type="line"/>
			<point x="218" y="461" type="line"/>
			<point x="218" y="211" type="line" smooth="yes"/>
			<point x="218" y="141"/>
			<point x="217" y="70"/>
			<point x="215" y="0" type="curve"/>
			<point x="301" y="0" type="line"/>
			<point x="299" y="70"/>
			<point x="298" y="141"/>
			<point x="298" y="211" type="curve" smooth="yes"/>
			<point x="298" y="383" type="line"/>
			<point x="301" y="526" type="line"/>
			<point x="287" y="536" type="line"/>
		</contour>
		<contour>
			<point x="297" y="48" type="line"/>
			<point x="218" y="48" type="line"/>
			<point x="74" y="27" type="line"/>
			<point x="74" y="0" type="line"/>
			<point x="442" y="0" type="line"/>
			<point x="442" y="27" type="line"/>
		</contour>
	</outline>
</glyph>
<glyph name="seven.cap" format="1">
	<advance width="497"/>
	<outline>
		<contour>
			<point x="138" y="10" type="line"/>
			<point x="148" y="0" type="line"/>
			<point x="219" y="0" type="line"/>
			<point x="454" y="620" type="line"/>
			<point x="454" y="670" type="line"/>
			<point x="50" y="670" type="line"/>
			<point x="50" y="590" type="line"/>
			<point x="423" y="590" type="line"/>
			<point x="417" y="620" type="line"/>
		</contour>
	</outline>
</glyph>
<glyph name="seven.lf" format="1">
	<advance width="476"/>
	<outline>
		<contour>
			<point x="111" y="10" type="line"/>
			<point x="121" y="0" type="line"/>
			<point x="200" y="0" type="line"/>
			<point x="431" y="597" type="line"/>
			<point x="431" y="647" type="line"/>
			<point x="27" y="647" type="line"/>
			<point x="27" y="567" type="line"/>
			<point x="400" y="567" type="line"/>
			<point x="394" y="597" type="line"/>
		</contour>
	</outline>
</glyph>
<glyph name="six.cap" format="1">
	<advance width="497"/>
	<outline>
		<contour>
			<point x="257" y="25" type="curve" smooth="yes"/>
			<point x="176" y="25"/>
			<point x="126" y="111"/>
			<point x="126" y="291" type="curve" smooth="yes"/>
			<point x="126" y="490"/>
			<point x="212" y="611"/>
			<point x="426" y="663" type="curve"/>
			<point x="420" y="683" type="line"/>
			<point x="172" y="654"/>
			<point x="40" y="482"/>
			<point x="40" y="278" type="curve" smooth="yes"/>
			<point x="40" y="94"/>
			<point x="122" y="-13"/>
			<point x="255" y="-13" type="curve" smooth="yes"/>
			<point x="380" y="-13"/>
			<point x="458" y="70"/>
			<point x="458" y="210" type="curve" smooth="yes"/>
			<point x="458" y="331"/>
			<point x="382" y="410"/>
			<point x="276" y="410" type="curve" smooth="yes"/>
			<point x="213" y="410"/>
			<point x="150" y="377"/>
			<point x="104" y="322" type="curve"/>
			<point x="116" y="306" type="line"/>
			<point x="155" y="342"/>
			<point x="209" y="353"/>
			<point x="255" y="353" type="curve" smooth="yes"/>
			<point x="325" y="353"/>
			<point x="373" y="306"/>
			<point x="373" y="193" type="curve" smooth="yes"/>
			<point x="373" y="78"/>
			<point x="328" y="25"/>
		</contour>
	</outline>
</glyph>
<glyph name="six.lf" format="1">
	<advance width="508"/>
	<outline>
		<contour>
			<point x="269" y="25" type="curve" smooth="yes"/>
			<point x="188" y="25"/>
			<point x="138" y="107"/>
			<point x="138" y="285" type="curve" smooth="yes"/>
			<point x="138" y="475"/>
			<point x="225" y="588"/>
			<point x="438" y="640" type="curve"/>
			<point x="432" y="660" type="line"/>
			<point x="184" y="631"/>
			<point x="52" y="467"/>
			<point x="52" y="272" type="curve" smooth="yes"/>
			<point x="52" y="91"/>
			<point x="134" y="-13"/>
			<point x="267" y="-13" type="curve" smooth="yes"/>
			<point x="392" y="-13"/>
			<point x="470" y="65"/>
			<point x="470" y="199" type="curve" smooth="yes"/>
			<point x="470" y="319"/>
			<point x="394" y="397"/>
			<point x="288" y="397" type="curve" smooth="yes"/>
			<point x="225" y="397"/>
			<point x="162" y="364"/>
			<point x="116" y="309" type="curve"/>
			<point x="128" y="293" type="line"/>
			<point x="167" y="329"/>
			<point x="221" y="341"/>
			<point x="267" y="341" type="curve" smooth="yes"/>
			<point x="337" y="341"/>
			<point x="385" y="297"/>
			<point x="385" y="190" type="curve" smooth="yes"/>
			<point x="385" y="76"/>
			<point x="340" y="25"/>
		</contour>
	</outline>
</glyph>
<glyph name="two.osf" format="1">
	<advance width="507"/>
	<outline>
		<contour>
			<point x="56" y="0" type="line"/>
			<point x="464" y="0" type="line"/>
			<point x="464" y="80" type="line"/>
			<point x="119" y="80" type="line"/>
			<point x="123" y="66" type="line"/>
			<point x="166" y="100"/>
			<point x="210" y="134"/>
			<point x="244" y="162" type="curve" smooth="yes"/>
			<point x="382" y="275"/>
			<point x="431" y="314"/>
			<point x="431" y="392" type="curve" smooth="yes"/>
			<point x="431" y="475"/>
			<point x="371" y="540"/>
			<point x="252" y="540" type="curve" smooth="yes"/>
			<point x="156" y="540"/>
			<point x="64" y="492"/>
			<point x="53" y="386" type="curve"/>
			<point x="64" y="366"/>
			<point x="81" y="354"/>
			<point x="102" y="354" type="curve" smooth="yes"/>
			<point x="132" y="354"/>
			<point x="148" y="378"/>
			<point x="160" y="421" type="curve" smooth="yes"/>
			<point x="184" y="513" type="line"/>
			<point x="128" y="480" type="line"/>
			<point x="165" y="495"/>
			<point x="206" y="502"/>
			<point x="235" y="502" type="curve" smooth="yes"/>
			<point x="301" y="502"/>
			<point x="345" y="466"/>
			<point x="345" y="393" type="curve" smooth="yes"/>
			<point x="345" y="322"/>
			<point x="299" y="269"/>
			<point x="211" y="193" type="curve" smooth="yes"/>
			<point x="158" y="149"/>
			<point x="108" y="107"/>
			<point x="56" y="64" type="curve"/>
		</contour>
	</outline>
</glyph>
<glyph name="zero.cap" format="1">
	<advance width="497"/>
	<outline>
		<contour>
			<point x="130" y="343" type="curve" smooth="yes"/>
			<point x="130" y="585"/>
			<point x="187" y="645"/>
			<point x="250" y="645" type="curve" smooth="yes"/>
			<point x="311" y="645"/>
			<point x="368" y="584"/>
			<point x="368" y="343" type="curve" smooth="yes"/>
			<point x="368" y="87"/>
			<point x="311" y="25"/>
			<point x="250" y="25" type="curve" smooth="yes"/>
			<point x="187" y="25"/>
			<point x="130" y="86"/>
		</contour>
		<contour>
			<point x="250" y="683" type="curve" smooth="yes"/>
			<point x="144" y="683"/>
			<point x="41" y="594"/>
			<point x="41" y="343" type="curve" smooth="yes"/>
			<point x="41" y="79"/>
			<point x="144" y="-13"/>
			<point x="250" y="-13" type="curve" smooth="yes"/>
			<point x="354" y="-13"/>
			<point x="457" y="79"/>
			<point x="457" y="343" type="curve" smooth="yes"/>
			<point x="457" y="594"/>
			<point x="354" y="683"/>
		</contour>
	</outline>
</glyph>
<glyph name="zero.lf" format="1">
	<advance width="500"/>
	<outline>
		<contour>
			<point x="132" y="322" type="curve" smooth="yes"/>
			<point x="132" y="563"/>
			<point x="189" y="622"/>
			<point x="250" y="622" type="curve" smooth="yes"/>
			<point x="311" y="622"/>
			<point x="368" y="562"/>
			<point x="368" y="322" type="curve" smooth="yes"/>
			<point x="368" y="83"/>
			<point x="311" y="25"/>
			<point x="250" y="25" type="curve" smooth="yes"/>
			<point x="189" y="25"/>
			<point x="132" y="82"/>
		</contour>
		<contour>
			<point x="251" y="660" type="curve" smooth="yes"/>
			<point x="144" y="660"/>
			<point x="40" y="571"/>
			<point x="40" y="322" type="curve" smooth="yes"/>
			<point x="40" y="73"/>
			<point x="144" y="-13"/>
			<point x="251" y="-13" type="curve" smooth="yes"/>
			<point x="357" y="-13"/>
			<point x="460" y="73"/>
			<point x="460" y="322" type="curve" smooth="yes"/>
			<point x="460" y="571"/>
			<point x="357" y="660"/>
		</contour>
	</outline>
</glyph>
<glyph name="zero.osf" format="1">
	<advance width="550"/>
	<outline>
		<contour>
			<point x="276" y="540" type="curve" smooth="yes"/>
			<point x="152" y="540"/>
			<point x="35" y="454"/>
			<point x="35" y="262" type="curve" smooth="yes"/>
			<point x="35" y="70"/>
			<point x="152" y="-13"/>
			<point x="276" y="-13" type="curve" smooth="yes"/>
			<point x="400" y="-13"/>
			<point x="515" y="70"/>
			<point x="515" y="262" type="curve" smooth="yes"/>
			<point x="515" y="454"/>
			<point x="400" y="540"/>
		</contour>
		<contour>
			<point x="127" y="262" type="curve" smooth="yes"/>
			<point x="127" y="448"/>
			<point x="199" y="502"/>
			<point x="276" y="502" type="curve" smooth="yes"/>
			<point x="351" y="502"/>
			<point x="423" y="447"/>
			<point x="423" y="262" type="curve" smooth="yes"/>
			<point x="423" y="77"/>
			<point x="351" y="25"/>
			<point x="276" y="25" type="curve" smooth="yes"/>
			<point x="199" y="25"/>
			<point x="127" y="76"/>
		</contour>
	</outline>
</glyph>
<glyph name="zero.slash" format="1">
	<advance width="497"/>
	<outline>
		<contour>
			<point x="41" y="20" type="line"/>
			<point x="67" y="6" type="line"/>
			<point x="123" y="95" type="line"/>
			<point x="107" y="126" type="line"/>
		</contour>
		<contour>
			<point x="133" y="99" type="line"/>
			<point x="386" y="505" type="line"/>
			<point x="376" y="544" type="line"/>
			<point x="117" y="130" type="line"/>
		</contour>
		<contour>
			<point x="396" y="509" type="line"/>
			<point x="458" y="608" type="line"/>
			<point x="432" y="622" type="line"/>
			<point x="386" y="548" type="line"/>
		</contour>
		<component base="zero" xOffset="-1"/>
	</outline>
</glyph>
<glyph name="zero.tosf" format="1">
	<advance width="497"/>
	<outline>
		<contour>
			<point x="250" y="540" type="curve" smooth="yes"/>
			<point x="138" y="540"/>
			<point x="33" y="454"/>
			<point x="33" y="262" type="curve" smooth="yes"/>
			<point x="33" y="70"/>
			<point x="138" y="-13"/>
			<point x="250" y="-13" type="curve" smooth="yes"/>
			<point x="361" y="-13"/>
			<point x="465" y="70"/>
			<point x="465" y="262" type="curve" smooth="yes"/>
			<point x="465" y="454"/>
			<point x="361" y="540"/>
		</contour>
		<contour>
			<point x="122" y="262" type="curve" smooth="yes"/>
			<point x="122" y="448"/>
			<point x="183" y="502"/>
			<point x="250" y="502" type="curve" smooth="yes"/>
			<point x="314" y="502"/>
			<point x="376" y="447"/>
			<point x="376" y="262" type="curve" smooth="yes"/>
			<point x="376" y="77"/>
			<point x="314" y="25"/>
			<point x="250" y="25" type="curve" smooth="yes"/>
			<point x="183" y="25"/>
			<point x="122" y="76"/>
		</contour>
	</outline>
</glyph>
